<?xml version="1.0" encoding="utf-8"?>
<!-- Generator: Adobe Illustrator 27.1.1, SVG Export Plug-In . SVG Version: 6.00 Build 0)  -->
<svg version="1.1" id="Flag" xmlns="http://www.w3.org/2000/svg" xmlns:xlink="http://www.w3.org/1999/xlink" x="0px" y="0px"
	 viewBox="0 0 1050 1050" style="enable-background:new 0 0 1050 1050;" xml:space="preserve">
<style type="text/css">
	.st0{fill:#009B3A;}
	.st1{fill:#FEDF00;}
	.st2{fill:#002776;}
	.st3{fill:#FFFFFF;}
</style>
<rect x="0" y="0" class="st0" width="1050" height="1050"/>
<polygon class="st1" points="54.1,530.6 527.6,224.5 1003.5,529.8 528.7,838.5 "/>
<ellipse class="st2" cx="529.2" cy="529.7" rx="200.6" ry="203.1"/>
<path class="st3" d="M510.7,449.7c137.2,29.2,216.9,110.5,216.9,110.5c-2.1,15.8-7.4,32.2-7.4,32.2C632,508,521.8,485.2,521.8,485.2
	c-98.2-23.9-186.7-6.7-186.7-6.7c2.8-11.4,10.7-31.2,10.7-31.2S412.6,434.7,510.7,449.7z"/>
<polygon class="st3" points="365.2,484.8 367.1,490.8 373.3,490.8 368.3,494.5 370.3,500.5 365.2,496.8 360.1,500.5 362.1,494.5 
	357,490.8 363.2,490.8 "/>
<polygon class="st3" points="452.3,530.9 454,536.1 459.5,536.1 455.1,539.4 456.8,544.6 452.3,541.4 447.9,544.6 449.6,539.4 
	445.2,536.1 450.6,536.1 "/>
<polygon class="st3" points="402.8,561.5 403.8,564.6 407.2,564.6 404.5,566.6 405.5,569.8 402.8,567.8 400.1,569.8 401.1,566.6 
	398.4,564.6 401.8,564.6 "/>
<polygon class="st3" points="382.9,569.7 385.1,576.5 392,576.5 386.4,580.5 388.6,587.3 382.9,583.1 377.3,587.3 379.4,580.5 
	373.8,576.5 380.8,576.5 "/>
<polygon class="st3" points="358.1,590.3 359.6,595.2 364.8,595.2 360.6,598.2 362.2,603.2 358.1,600.2 353.9,603.2 355.5,598.2 
	351.3,595.2 356.4,595.2 "/>
<polygon class="st3" points="424.7,592.2 426.3,597.1 431.4,597.1 427.2,600.2 428.9,605.1 424.7,602.1 420.5,605.1 422.2,600.2 
	418,597.1 423.2,597.1 "/>
<polygon class="st3" points="418.6,612.6 420.2,617.5 425.3,617.5 421.1,620.5 422.8,625.5 418.6,622.5 414.4,625.5 416.1,620.5 
	411.9,617.5 417.1,617.5 "/>
<polygon class="st3" points="448.3,630 450,635.5 455.8,635.5 451.2,639 453,644.5 448.3,641.1 443.6,644.5 445.4,639 440.8,635.5 
	446.5,635.5 "/>
<polygon class="st3" points="528.6,613.7 530.3,619.2 536.1,619.2 531.4,622.6 533.2,628.2 528.6,624.7 523.9,628.2 525.7,622.6 
	521,619.2 526.8,619.2 "/>
<polygon class="st3" points="552.1,573.7 553.7,578.8 559.1,578.8 554.8,582 556.5,587.1 552.1,583.9 547.8,587.1 549.5,582 
	545.2,578.8 550.5,578.8 "/>
<polygon class="st3" points="528.6,555.2 530.2,560.3 535.5,560.3 531.2,563.5 532.8,568.7 528.6,565.5 524.2,568.7 525.9,563.5 
	521.6,560.3 526.9,560.3 "/>
<polygon class="st3" points="508.3,573.8 509.7,578.4 514.4,578.4 510.7,581.2 512.1,585.7 508.3,582.9 504.5,585.7 505.9,581.2 
	502.2,578.4 506.9,578.4 "/>
<polygon class="st3" points="518.4,590.1 519.5,593.5 522.9,593.5 520.1,595.6 521.2,598.9 518.4,596.8 515.5,598.9 516.6,595.6 
	513.7,593.5 517.3,593.5 "/>
<polygon class="st3" points="583.3,515.4 584.4,518.8 587.9,518.8 585,520.8 586.1,524.2 583.3,522.1 580.5,524.2 581.6,520.8 
	578.7,518.8 582.2,518.8 "/>
<polygon class="st3" points="591,457.8 593,463.9 599.5,463.9 594.2,467.8 596.2,474 591,470.2 585.7,474 587.7,467.8 582.5,463.9 
	589,463.9 "/>
<polygon class="st3" points="669.1,592.6 671.1,598.8 677.6,598.8 672.4,602.7 674.4,608.9 669.1,605.1 663.9,608.9 665.9,602.7 
	660.6,598.8 667.1,598.8 "/>
<polygon class="st3" points="664.9,627.7 666.6,632.9 672,632.9 667.6,636.1 669.3,641.4 664.9,638.2 660.6,641.4 662.2,636.1 
	657.9,632.9 663.3,632.9 "/>
<polygon class="st3" points="677.3,612.2 679,617.4 684.4,617.4 680.1,620.6 681.7,625.8 677.3,622.6 673,625.8 674.6,620.6 
	670.3,617.4 675.7,617.4 "/>
<polygon class="st3" points="696.9,596.9 698.2,600.9 702.3,600.9 699,603.3 700.3,607.3 696.9,604.9 693.6,607.3 694.9,603.3 
	691.5,600.9 695.7,600.9 "/>
<polygon class="st3" points="649,640.1 650.3,644 654.5,644 651.1,646.5 652.4,650.5 649,648 645.7,650.5 647,646.5 643.6,644 
	647.7,644 "/>
<polygon class="st3" points="629.1,655.1 630.6,659.7 635.4,659.7 631.5,662.5 633,667 629.1,664.3 625.3,667 626.7,662.5 
	622.9,659.7 627.7,659.7 "/>
<polygon class="st3" points="627.8,636.3 629,640.1 633,640.1 629.7,642.4 631,646.2 627.8,643.9 624.6,646.2 625.9,642.4 
	622.6,640.1 626.6,640.1 "/>
<polygon class="st3" points="606.1,643.6 607.3,647.3 611.2,647.3 608,649.7 609.3,653.4 606.1,651.1 602.9,653.4 604.1,649.7 
	600.9,647.3 604.9,647.3 "/>
<polygon class="st3" points="573,638.2 574.2,641.9 578.2,641.9 574.9,644.3 576.1,648.1 573,645.7 569.8,648.1 571,644.3 
	567.8,641.9 571.7,641.9 "/>
<polygon class="st3" points="629,677.4 630.3,681.2 634.1,681.2 631,683.5 632.2,687.3 629,685 625.9,687.3 627,683.5 623.9,681.2 
	627.8,681.2 "/>
<polygon class="st3" points="589,660.5 590.5,665 595.3,665 591.4,667.9 592.9,672.5 589,669.7 585.2,672.5 586.6,667.9 582.8,665 
	587.6,665 "/>
<polygon class="st3" points="529.2,686 529.9,688 532,688 530.3,689.4 531,691.5 529.2,690.2 527.3,691.5 528,689.4 526.3,688 
	528.5,688 "/>
<g>
	<path class="st0" d="M363.5,459.1c1.1,5.8-2.2,9.3-7,10c-4.9,0.8-9.3-2.1-10.5-7.2c-1.3-5.3,1.7-9.4,7-10.2
		S362.5,454.1,363.5,459.1z M348.6,461.5c0.8,3.6,3.8,6.4,7.6,5.9c3.9-0.5,5.4-4,4.6-7.8c-0.7-3.3-3.4-6.6-7.6-5.9
		C349.1,454.2,347.8,457.8,348.6,461.5z"/>
	<path class="st0" d="M374,449.7c1.2-0.4,3.1-0.6,4.9-0.8c2.7-0.2,4.6,0.1,5.9,0.9c1.1,0.7,1.8,1.8,2,3.1c0.3,2.2-1.1,3.9-3.1,4.6
		v0.1c1.5,0.3,2.6,1.5,3.3,3.2c0.9,2.3,1.6,3.9,2.1,4.6c-0.8,0.1-1.7,0.2-2.5,0.2c-0.4-0.5-1-1.9-1.9-3.9c-0.9-2.3-2.1-3.1-4.3-3
		c-0.8,0.1-1.5,0.2-2.3,0.2c0.4,2.5,0.8,4.9,1.2,7.3c-0.8,0.1-1.6,0.2-2.5,0.2C375.8,460.8,375,455.3,374,449.7z M377.7,457.2
		c0.8-0.1,1.7-0.2,2.5-0.2c2.7-0.2,4.2-1.6,3.9-3.6c-0.3-2.2-2.2-3-4.9-2.8c-1.2,0.1-2.1,0.3-2.5,0.4
		C377.1,453,377.4,455.1,377.7,457.2z"/>
	<path class="st0" d="M398.6,448c1.5-0.2,3.4-0.5,5.4-0.5c3.7-0.1,6.3,0.6,8.1,1.9c1.9,1.4,2.9,3.3,3.2,6.1c0.2,2.8-0.7,5-2.3,6.6
		c-1.7,1.6-4.6,2.5-8.2,2.6c-1.7,0.1-3.2,0-4.5-0.1C399.7,459.1,399.1,453.6,398.6,448z M402.5,462.9c0.6,0.1,1.5,0.1,2.5,0.1
		c5.3-0.2,7.9-2.8,7.6-7.3c-0.2-4-3-6.6-8.4-6.4c-1.3,0-2.3,0.2-2.9,0.3C401.7,454,402.1,458.4,402.5,462.9z"/>
	<path class="st0" d="M437.1,456.9c-2.5-0.1-5-0.2-7.5-0.2c0.1,2,0.1,4.1,0.2,6.1c2.7,0.1,5.5,0.2,8.2,0.3c0,0.6,0,1.2,0,1.9
		c-3.6-0.2-7.1-0.3-10.6-0.4c-0.2-5.6-0.3-11.4-0.5-17c3.6,0.1,7.1,0.2,10.7,0.4c0,0.6,0,1.2,0,1.9c-2.7-0.2-5.4-0.2-8-0.3
		c0,1.8,0.1,3.6,0.2,5.3c2.5,0.1,5,0.2,7.5,0.3C437.1,455.7,437.1,456.3,437.1,456.9z"/>
	<path class="st0" d="M465.9,459.6c0-2.4,0.1-5.3,0.2-7.3H466c-0.8,1.9-1.8,3.9-2.9,6.2c-1.3,2.6-2.6,5.3-3.9,7.9
		c-0.6-0.1-1.2-0.2-1.9-0.2c-0.8-2.8-1.8-5.6-2.7-8.3c-0.8-2.5-1.5-4.7-2-6.8c0,0,0,0-0.1,0c-0.2,2.1-0.4,4.9-0.6,7.4
		c-0.2,2.4-0.5,4.8-0.8,7.2c-0.8-0.1-1.5-0.2-2.3-0.2c0.6-5.6,1.2-11.2,1.9-16.8c1.1,0.1,2.2,0.2,3.2,0.2c1,2.9,2,5.6,2.9,8.5
		c0.7,2.2,1.2,4.1,1.6,5.9h0.1c0.5-1.7,1.4-3.5,2.3-5.5c1.3-2.6,2.6-5.2,4-7.8c1.1,0.2,2.2,0.2,3.2,0.4c0,5.6-0.1,11.4-0.2,17
		c-0.8-0.1-1.5-0.2-2.4-0.3C465.8,464.5,465.9,462.1,465.9,459.6z"/>
	<path class="st0" d="M505.3,465.2c-2.5-0.5-4.9-1-7.3-1.4c-0.3,2-0.6,4-0.9,6c2.7,0.5,5.4,1,8,1.5c-0.1,0.6-0.2,1.2-0.3,1.8
		c-3.5-0.7-7-1.4-10.4-2c0.8-5.6,1.7-11.1,2.5-16.7c3.5,0.6,7,1.3,10.4,2c-0.1,0.6-0.2,1.2-0.3,1.8c-2.6-0.5-5.3-1.1-7.9-1.5
		c-0.3,1.8-0.5,3.5-0.8,5.3c2.5,0.5,4.9,0.9,7.4,1.5C505.5,464.1,505.4,464.7,505.3,465.2z"/>
	<path class="st0" d="M534,463c1.2,0.2,2.8,0.4,4.8,1c2.4,0.7,4.1,1.7,4.9,2.9c0.8,1.1,1.1,2.4,0.7,3.9c-0.4,1.5-1.2,2.5-2.4,3
		c-1.6,0.8-3.8,0.8-6.2,0.2c-0.7-0.2-1.4-0.4-1.9-0.7c-0.5,2.2-1.2,4.3-1.7,6.5c-0.8-0.2-1.5-0.5-2.3-0.6
		C531.3,473.7,532.7,468.4,534,463z M534.4,471.5c0.5,0.2,1.2,0.5,1.9,0.7c2.9,0.8,5,0.1,5.6-2.2c0.6-2.2-0.8-3.7-3.6-4.4
		c-1.1-0.3-1.9-0.5-2.3-0.5C535.5,467.3,535,469.4,534.4,471.5z"/>
	<path class="st0" d="M557.3,470c1.3,0.2,3.1,0.6,4.7,1.2c2.5,0.8,4.1,1.9,4.9,3.2c0.7,1,0.8,2.3,0.4,3.6c-0.8,2.1-2.8,2.9-4.9,2.9
		v0.1c1.2,0.9,1.7,2.3,1.5,4.2c-0.2,2.4-0.3,4.1-0.2,4.9c-0.8-0.3-1.5-0.5-2.4-0.8c-0.2-0.5-0.1-2.1,0.2-4.2
		c0.2-2.4-0.5-3.6-2.5-4.3c-0.8-0.2-1.5-0.5-2.2-0.8c-0.8,2.3-1.5,4.6-2.3,7c-0.8-0.2-1.5-0.5-2.3-0.8
		C553.9,480.5,555.6,475.2,557.3,470z M557.3,478c0.8,0.2,1.6,0.5,2.4,0.8c2.5,0.8,4.6,0.2,5.2-1.6c0.7-2.1-0.7-3.6-3.2-4.4
		c-1.2-0.4-2-0.5-2.5-0.6C558.6,474.1,557.9,476.1,557.3,478z"/>
	<path class="st0" d="M592.8,491.8c-2.4,5.3-7.3,6.6-11.7,4.7c-4.6-1.9-6.6-6.3-4.8-11c1.9-5,6.9-6.9,11.7-4.9
		C593.1,482.6,594.8,487.3,592.8,491.8z M578.8,486.4c-1.3,3.3-0.5,7.1,3.1,8.6c3.6,1.5,6.9-0.6,8.4-4.1c1.3-3.1,0.8-7.1-3.1-8.6
		C583.4,480.6,580.2,482.9,578.8,486.4z"/>
	<path class="st0" d="M613.2,509.9c-1.2-0.2-3.3-0.6-5.6-1.8c-2.5-1.2-4.4-2.9-5.4-5c-0.8-1.9-0.8-4.4,0.3-6.8
		c2.2-4.6,7.4-6.2,13.4-3.3c2.1,1,3.5,2.2,4.1,2.9c-0.5,0.5-0.9,0.8-1.4,1.3c-0.8-0.8-1.8-1.7-3.6-2.5c-4.3-2.1-8.3-1.1-10.1,2.7
		c-1.9,3.9-0.3,7.3,3.6,9.3c1.5,0.7,2.5,1,3.2,1c0.8-1.5,1.5-2.9,2.3-4.5c-1.2-0.5-2.3-1.2-3.6-1.7c0.2-0.5,0.5-1,0.8-1.5
		c1.9,0.9,3.8,1.9,5.7,2.8C615.8,505.1,614.5,507.5,613.2,509.9z"/>
	<path class="st0" d="M631.9,501.7c1.2,0.4,2.9,1.2,4.5,2c2.4,1.3,3.7,2.5,4.2,3.9c0.5,1.2,0.4,2.4-0.3,3.5
		c-1.2,1.9-3.3,2.4-5.4,1.9c0,0,0,0.1-0.1,0.1c1.1,1.1,1.2,2.5,0.7,4.3c-0.7,2.3-1.2,3.9-1.2,4.7c-0.7-0.4-1.5-0.8-2.2-1.2
		c0-0.5,0.4-2,1-4.1c0.7-2.2,0.2-3.6-1.7-4.7c-0.7-0.4-1.4-0.8-2.1-1.2c-1.2,2.1-2.5,4.2-3.7,6.3c-0.7-0.4-1.5-0.8-2.2-1.2
		C626.4,511.3,629.2,506.5,631.9,501.7z M630.3,509.6c0.8,0.4,1.5,0.8,2.2,1.2c2.3,1.3,4.5,1,5.5-0.6c1.2-1.9,0-3.6-2.3-4.9
		c-1.1-0.6-1.9-0.9-2.3-1C632.4,506,631.4,507.8,630.3,509.6z"/>
	<path class="st0" d="M656.9,526.5c-2.1-1.3-4.2-2.7-6.4-4c-1.2,1.7-2.2,3.4-3.4,5.1c2.3,1.5,4.6,2.9,7,4.4c-0.4,0.5-0.7,1-1.1,1.5
		c-3-1.9-6-3.8-9-5.6c3.1-4.7,6.2-9.4,9.3-14.1c3,1.9,6.1,3.7,9.1,5.6c-0.4,0.5-0.7,1-1.1,1.5c-2.2-1.5-4.6-2.9-6.9-4.3
		c-1,1.5-2,2.9-3,4.5c2.2,1.3,4.2,2.6,6.4,4C657.6,525.5,657.3,525.9,656.9,526.5z"/>
	<path class="st0" d="M664.1,537.5c0.5,1.1,1.5,2.4,3,3.4c2.1,1.5,4,1.4,5,0c1-1.2,0.7-2.5-0.9-4.8c-2-2.5-2.8-4.9-1.3-6.7
		c1.5-2.1,4.9-2.2,8-0.1c1.7,1.2,2.6,2.3,3.1,3.2c-0.5,0.3-1.2,0.7-1.7,1c-0.3-0.6-1.1-1.8-2.5-2.8c-2.2-1.5-3.9-1-4.6-0.1
		c-0.9,1.2-0.5,2.5,1.2,4.8c2,2.8,2.5,4.9,0.9,6.8c-1.6,2.1-4.8,2.5-8.5,0c-1.5-1.1-2.9-2.5-3.3-3.6
		C663.1,538.2,663.6,537.9,664.1,537.5z"/>
	<path class="st0" d="M682.4,550.7c0.5,1.2,1.5,2.5,2.8,3.6c2,1.5,3.9,1.5,5.1,0.3c1.1-1.2,0.8-2.5-0.6-4.8c-1.9-2.7-2.5-4.9-1-6.8
		c1.7-2,5-2,8.1,0.4c1.6,1.2,2.5,2.5,2.9,3.3c-0.6,0.3-1.2,0.6-1.8,0.9c-0.3-0.6-1-1.9-2.4-2.9c-2.2-1.7-3.9-1.2-4.6-0.3
		c-1,1.2-0.6,2.5,0.9,4.9c1.9,2.9,2.2,4.9,0.5,6.8c-1.8,1.9-4.9,2.3-8.5-0.5c-1.5-1.2-2.7-2.7-3.2-3.8
		C681.3,551.4,681.9,551,682.4,550.7z"/>
	<path class="st0" d="M717,571.7c-4.2,4.1-9.4,3.6-13.1,0.3c-3.8-3.3-4.1-8.1-0.5-11.9c3.7-3.9,9.2-4,13.2-0.5
		C720.7,563.2,720.7,568.1,717,571.7z M705.5,561.8c-2.5,2.6-3.1,6.4-0.2,9c2.9,2.5,6.9,1.9,9.7-0.8c2.5-2.4,3.5-6.3,0.2-9.1
		C712,558,708.1,559.1,705.5,561.8z"/>
</g>
</svg>
