<?xml version="1.0" encoding="utf-8"?>
<!-- Generator: Adobe Illustrator 27.1.1, SVG Export Plug-In . SVG Version: 6.00 Build 0)  -->
<svg version="1.1" id="Camada_1" xmlns="http://www.w3.org/2000/svg" xmlns:xlink="http://www.w3.org/1999/xlink" x="0px" y="0px"
	 viewBox="0 0 1400 500" style="enable-background:new 0 0 1400 500;" xml:space="preserve">
<style type="text/css">
	.st0{fill:#E52635;}
	.st1{fill:#17233D;}
	.st2{enable-background:new    ;}
</style>
<path class="st0" d="M307,394.7c0,23.6,0.1,56.8,0.1,72.3c0,1.6,0.1,3.1,0.4,4.6c1.1,5,0.8,8.8,11.7,8.8c10.6,0,11.7-2.3,12.8-7.6
	c0.5-3.3,0.6-4.9,0.6-7.8c0.3-18.6,0.1-32,0.2-50.7c0.1-3,4.7-3.7,6.8-3.6c13.9,1,64.5,4.9,90,13.5c25.4,7.3,26.4,7.3,26.4,7.3
	s8.7,1.8,11.5-5.9c1.7-6.3,0.7-8.7-2.9-12c-4.3-3.3-20.8-14.1-26.1-31.1c-0.3-0.9,0.1-1.8,0.9-2.2c7.8-4.2,47.6-26.2,77.2-54.5
	c18.2-19,28-30.4,33.7-49.8c1.1-3.8,1.5-7.8,1.1-11.8c-0.5-4.6-2.3-10-7.4-12.1c-2.3-0.9-5-0.8-7.2,0.3c-1.3,0.6-2.8,1.6-4.5,3.1
	c-4.6,4.2-8.9,7.4-8.9,7.4s-1.7,1.4-0.9-1.6c1.2-3.2,16.5-34.5,18.7-62.9c0,0,3.1-17.4-6.8-17.2c-8.3,1-16.8,5.1-27.1,8.3
	c-10.3,3.3-20.7,5.2-28.7,0.1c-8-5.1-12.1-16.6-13.1-26.8c-1-8.5-5.5-10.7-10.8-10.9c-5.3,0-9.6,4.3-11.8,11.5
	c-3.4,7-8.6,22.6-38.6,40.8c-0.7,0.4-1.5-0.3-1.2-1c2.9-7.8,12.1-35,12.2-60.9c-0.4-27.9-2.3-36.2-7.8-47.5
	c-4.5-6.9-8.8-10.3-17-1.6s-14.8,13.4-26.1,2.1c-8.6-11.9-15.1-26-18.8-35.7s-12-29-15.5-33.9c-3.7-6-8-10.1-14.6,0
	c-6.1,10.3-10,20.8-13.3,28.3c-3.3,7.6-9.2,24.6-18.1,37.3c-8.2,9.7-13.8,14.2-23.8,7.1c-6.5-5.9-8.3-10-13.5-10.1
	c-5.1-0.1-9.2,4.4-12.3,15.1s-6.5,31-3.3,54c2.8,20,7.6,36.9,10.6,44.8c0.4,1.1-0.7,2.1-1.7,1.6c-6.7-3.4-23.2-14.1-37.5-40.2
	c0,0-4.2-11.5-12.1-11.4c-7.9,0.1-10.6,5.9-10.9,12.1c-0.8,6.6-4,27.4-22.9,28.3c-17.9-0.2-25.3-6.4-40.1-10.5
	c-13.8-3.9-12.9,7.9-12.9,7.9s0,29.2,15.3,61.9l3.5,8c0,0,2,5.8-2.8,1.4c-4.8-4.3-9.6-8.2-9.6-8.2s-8.9-5.6-14.5,5.1
	c-4.3,10.9,2,25.8,2,25.8s10.5,22.8,31.8,42.7c22.3,19.3,32.2,26.4,41,32.2c8.8,5.8,34.4,20.8,34.4,20.8s2.7,1.4,1.2,4.6
	c-1.7,3.6-5.1,13.3-22.1,26.8c-8.8,8.6-8,9.7-5.2,16.3s10.7,4.7,15,3.4c4-1.2,43.7-14.5,81-18c4.1-0.4,7.3-3.8,7.3-8v-3.1
	c0-5.8-5.1-10.3-10.8-9.7c-13.6,1.6-35.9,4.5-42.7,7.5c-4.2,1.4-8.4,3.3-5.1-2.8c4.3-6.9,5.5-13.8,6.1-16.5s1-7.6-4.4-11.5
	s-41-25.7-54.8-34.9c-13.8-9.2-43.9-35.3-47.8-46.2c0,0-4.3-6.5,2.2-3.4s19.1,2.4,23.5,2.3c4.6-0.6,9-2.9,9.7-8.3s-1.5-8.1-3.2-9.9
	c-4.2-5-16-20.6-20.5-34.5c-4.5-13.8-5.3-16.5-6.7-22.3c-0.8-2.6-0.5-4,2.7-2.6c3.2,1.6,18.2,4.6,25.5,4.6s25.3-1.7,35.8-19.5
	c0,0,3.1-5.8,5.9-0.2c4.3,6.1,10.7,12.2,14.6,15.4c3.9,3.2,29.4,24.7,52.6,24.8c8.2,0.2,11.2-3.2,11.2-6.7s-3.5-10.2-8.5-19.6
	c-5.1-9.4-13.6-36.8-14.5-44.4c-0.9-4.9-2.5-30.3-0.3-40.9c0.5-1.8,1.3-2.6,2.9-1.8c1.7,0.8,7.2,3,12.5,3.3
	c5.3,0.2,17.6-2.1,25.5-11.6c8.3-10.6,16.8-22.3,25.4-40.5c0.4-0.8,0.8-1.7,1.1-2.6l1.4-3.5c0,0,1.5-4,3.2,0.2
	c1.8,4.7,11,25,16.6,32.3c5.6,7.3,13.2,19.1,26.9,24.1c13.9,3.1,17.1,0.4,22.4-1.9c1.5-0.8,2.5-1.6,2.8,1.5s1.9,19.2,1,30.2
	c-0.8,11-2.9,24.2-11.1,44.7c-6.6,14.9-8.1,17.7-10.8,22.4c-3,5.7-5.3,15.5,8.3,14.9c13.3-0.8,31.3-6.1,52.5-24.4
	c13.3-12,14.8-15.3,16.2-17.1c1-1.4,2.5-3.3,3.9-0.4c1.4,2.9,11.8,21.6,37.3,21.4c14.3,0.4,25.6-4.7,25.6-4.7s2.7-1.3,2,2.2
	c-0.7,3.6-6.9,28.5-16,41.5c-7.8,11.6-7.6,10.9-11.7,16.3c-3.5,3.8-2.5,9.4-2.5,9.4s0.9,9,16,8.4c15.1-0.6,17.9-2.8,17.9-2.8
	s5.3-3.2,2,2.3s-11.2,16.4-20.9,25c-9.7,8.6-16.5,14.4-23.5,19.4c-7,5.1-32.4,21.8-41,26.4s-10.4,5.5-15,8.1s-8.8,4.6-7.3,15.4
	s5.8,16.6,6.6,17.4c0.8,0.8,2.7,3.6-1.6,2.3c-4.3-1.3-45.6-9.1-66.8-9.6c-19.4-0.5-23.6-1-42-1.2C309.4,389.5,307,391.8,307,394.7z"
	/>
<g>
	<path class="st1" d="M717.4,163.8c9.3,0,17.9,1.5,25.7,4.5s14.6,7.3,20.2,13c5.7,5.7,10.1,12.7,13.3,21s4.8,17.8,4.8,28.5
		c0,2.7-0.1,4.9-0.4,6.7c-0.2,1.8-0.7,3.2-1.3,4.2s-1.5,1.7-2.5,2.2c-1.1,0.4-2.4,0.6-4,0.6h-91.3c1.1,15.2,5.1,26.3,12.2,33.4
		c7.1,7.1,16.5,10.7,28.2,10.7c5.8,0,10.7-0.7,14.9-2s7.8-2.8,10.9-4.5c3.1-1.6,5.9-3.1,8.2-4.5c2.4-1.3,4.6-2,6.8-2
		c1.4,0,2.7,0.3,3.7,0.9c1.1,0.6,2,1.4,2.7,2.4l10.4,13c-3.9,4.6-8.4,8.5-13.3,11.6c-4.9,3.1-10,5.6-15.3,7.5s-10.8,3.2-16.3,4
		s-10.9,1.2-16.1,1.2c-10.3,0-19.8-1.7-28.7-5.1c-8.8-3.4-16.5-8.5-23-15.1c-6.5-6.7-11.7-14.9-15.4-24.8
		c-3.7-9.8-5.6-21.3-5.6-34.2c0-10.1,1.6-19.6,4.9-28.5c3.3-8.9,7.9-16.6,14-23.2c6.1-6.6,13.5-11.8,22.3-15.6
		C696.4,165.7,706.3,163.8,717.4,163.8z M718.1,189.3c-10.4,0-18.5,2.9-24.3,8.8c-5.9,5.9-9.6,14.2-11.2,24.9h66.8
		c0-4.6-0.6-9-1.9-13c-1.3-4.1-3.2-7.7-5.8-10.7c-2.6-3.1-5.9-5.5-9.8-7.3S723.4,189.3,718.1,189.3z"/>
	<path class="st1" d="M942.3,126.5v28.7h-56.4V314H851V155.1h-56.7v-28.7L942.3,126.5L942.3,126.5z"/>
	<path class="st1" d="M1110.2,313.9h-27c-3,0-5.5-0.8-7.5-2.3c-1.9-1.5-3.4-3.4-4.2-5.6l-14-38.2h-77.7l-14,38.2
		c-0.7,2-2.1,3.8-4.1,5.4s-4.5,2.5-7.5,2.5h-27.1l73.6-187.5h35.7L1110.2,313.9z M988.9,243.1h59.8l-22.8-62.4c-1-2.8-2.2-6-3.4-9.8
		c-1.3-3.8-2.5-7.8-3.7-12.3c-1.2,4.4-2.4,8.5-3.6,12.3c-1.2,3.8-2.3,7.1-3.4,10L988.9,243.1z"/>
</g>
<g class="st2">
	<path class="st1" d="M655.3,359.5c3.3-6,7.8-10.7,13.6-14c5.7-3.3,12.1-5,19.2-5c8.6,0,16,2,22.1,6.1c6.1,4.1,10.6,9.8,13.4,17.2
		h-9c-2.2-5.2-5.6-9.3-10.1-12.2c-4.5-2.9-10-4.4-16.4-4.4c-5.7,0-10.7,1.3-15.3,4c-4.5,2.6-8.1,6.4-10.6,11.4
		c-2.6,5-3.9,10.7-3.9,17.2c0,6.5,1.3,12.3,3.9,17.2c2.6,4.9,6.1,8.7,10.6,11.4c4.5,2.6,9.6,4,15.3,4c6.4,0,11.8-1.5,16.4-4.4
		c4.5-2.9,7.9-6.9,10.1-12.1h9c-2.8,7.3-7.3,13-13.4,17.1c-6.2,4-13.5,6.1-22,6.1c-7.1,0-13.4-1.7-19.2-5c-5.7-3.3-10.2-8-13.6-13.9
		c-3.3-6-5-12.7-5-20.3C650.3,372.3,652,365.5,655.3,359.5z"/>
	<path class="st1" d="M739,372c2.5-4.7,5.9-8.3,10.2-10.8c4.4-2.5,9.3-3.8,14.8-3.8c5.7,0,10.7,1.3,14.8,4c4.2,2.6,7.1,6,9,10.1
		v-13.2h7.7v60.2h-7.7v-13.3c-1.9,4.1-4.9,7.5-9.1,10.2c-4.2,2.7-9.1,4-14.8,4c-5.4,0-10.3-1.3-14.7-3.9c-4.4-2.6-7.8-6.2-10.2-10.9
		c-2.5-4.7-3.7-10.1-3.7-16.3S736.5,376.7,739,372z M784.9,375.6c-2-3.7-4.7-6.5-8.1-8.5s-7.2-3-11.3-3c-4.3,0-8.1,1-11.5,2.9
		c-3.4,1.9-6,4.7-8,8.3c-1.9,3.6-2.9,8-2.9,13c0,4.9,1,9.2,2.9,13c1.9,3.7,4.6,6.5,8,8.5c3.4,1.9,7.2,2.9,11.5,2.9
		c4.1,0,7.9-1,11.3-3c3.4-2,6.1-4.8,8.1-8.5c2-3.7,3-7.9,3-12.8C787.8,383.5,786.9,379.3,784.9,375.6z"/>
	<path class="st1" d="M859,363.8c4.6,4.4,6.8,10.9,6.8,19.3v35.3h-7.6v-34.4c0-6.5-1.6-11.5-4.9-15c-3.3-3.5-7.7-5.2-13.4-5.2
		c-5.8,0-10.4,1.8-13.9,5.5c-3.5,3.7-5.2,9.1-5.2,16.2v32.8h-7.7v-60.2h7.7v10.2c1.9-3.7,4.7-6.5,8.3-8.4c3.6-1.9,7.7-2.9,12.2-2.9
		C848.6,357.2,854.5,359.4,859,363.8z"/>
	<path class="st1" d="M883.1,372c2.5-4.7,5.9-8.3,10.2-10.8c4.4-2.5,9.3-3.8,14.8-3.8c5.7,0,10.7,1.3,14.8,4c4.2,2.6,7.1,6,9,10.1
		v-13.2h7.7v60.2H932v-13.3c-1.9,4.1-4.9,7.5-9.1,10.2c-4.2,2.7-9.1,4-14.8,4c-5.4,0-10.3-1.3-14.7-3.9c-4.4-2.6-7.8-6.2-10.2-10.9
		c-2.5-4.7-3.7-10.1-3.7-16.3S880.7,376.7,883.1,372z M929,375.6c-2-3.7-4.7-6.5-8.1-8.5s-7.2-3-11.3-3c-4.3,0-8.1,1-11.5,2.9
		c-3.4,1.9-6,4.7-8,8.3c-1.9,3.6-2.9,8-2.9,13c0,4.9,1,9.2,2.9,13c1.9,3.7,4.6,6.5,8,8.5c3.4,1.9,7.2,2.9,11.5,2.9
		c4.1,0,7.9-1,11.3-3c3.4-2,6.1-4.8,8.1-8.5c2-3.7,3-7.9,3-12.8C932,383.5,931,379.3,929,375.6z"/>
	<path class="st1" d="M957.6,372c2.5-4.7,5.9-8.3,10.3-10.8c4.4-2.5,9.3-3.8,14.8-3.8c5.3,0,10.1,1.3,14.3,3.9
		c4.3,2.6,7.4,5.9,9.4,10v-34.4h7.7v81.6h-7.7V405c-1.8,4.2-4.8,7.6-9,10.3c-4.2,2.7-9.1,4-14.8,4c-5.5,0-10.5-1.3-14.8-3.9
		c-4.4-2.6-7.8-6.2-10.2-10.9c-2.5-4.7-3.7-10.1-3.7-16.3S955.1,376.7,957.6,372z M1003.4,375.6c-2-3.7-4.7-6.5-8.1-8.5
		c-3.4-2-7.2-3-11.3-3c-4.3,0-8.1,1-11.5,2.9c-3.4,1.9-6,4.7-8,8.3c-1.9,3.6-2.9,8-2.9,13c0,4.9,1,9.2,2.9,13c1.9,3.7,4.6,6.5,8,8.5
		c3.4,1.9,7.2,2.9,11.5,2.9c4.1,0,7.9-1,11.3-3c3.4-2,6.1-4.8,8.1-8.5c2-3.7,3-7.9,3-12.8C1006.4,383.5,1005.4,379.3,1003.4,375.6z"
		/>
	<path class="st1" d="M1031.6,345.3c-1.1-1.1-1.7-2.5-1.7-4.1s0.6-3,1.7-4c1.1-1.1,2.4-1.6,4-1.6c1.5,0,2.9,0.5,4,1.6
		c1.1,1.1,1.7,2.4,1.7,4s-0.6,3-1.7,4.1c-1.1,1.1-2.4,1.7-4,1.7C1034.1,346.9,1032.7,346.4,1031.6,345.3z M1039.5,358.3v60.2h-7.7
		v-60.2H1039.5z"/>
	<path class="st1" d="M1111.2,391.3h-49.9c0.2,4.6,1.3,8.5,3.3,11.7c2,3.2,4.6,5.7,7.8,7.3c3.2,1.7,6.8,2.5,10.6,2.5
		c5,0,9.2-1.2,12.6-3.6c3.4-2.4,5.7-5.7,6.8-9.8h8.2c-1.5,5.9-4.6,10.7-9.4,14.4c-4.8,3.7-10.9,5.6-18.1,5.6
		c-5.7,0-10.7-1.3-15.2-3.8c-4.5-2.5-8-6.1-10.5-10.8c-2.5-4.7-3.8-10.1-3.8-16.4c0-6.2,1.2-11.7,3.7-16.4c2.5-4.7,6-8.3,10.5-10.8
		c4.5-2.5,9.6-3.7,15.3-3.7c5.7,0,10.7,1.3,15,3.7c4.3,2.5,7.6,5.9,9.9,10.1c2.3,4.2,3.5,8.9,3.5,14.1
		C1111.4,387.9,1111.3,389.9,1111.2,391.3z M1100.9,373.6c-1.9-3.2-4.4-5.5-7.7-7.2c-3.2-1.6-6.8-2.4-10.6-2.4
		c-5.7,0-10.6,1.8-14.7,5.5c-4,3.7-6.3,8.9-6.7,15.5h42.3C1103.7,380.6,1102.8,376.8,1100.9,373.6z"/>
	<path class="st1" d="M1171.4,363.8c4.6,4.4,6.8,10.9,6.8,19.3v35.3h-7.6v-34.4c0-6.5-1.6-11.5-4.9-15c-3.3-3.5-7.7-5.2-13.4-5.2
		c-5.8,0-10.4,1.8-13.9,5.5c-3.5,3.7-5.2,9.1-5.2,16.2v32.8h-7.7v-60.2h7.7v10.2c1.9-3.7,4.7-6.5,8.3-8.4c3.6-1.9,7.7-2.9,12.2-2.9
		C1160.9,357.2,1166.8,359.4,1171.4,363.8z"/>
	<path class="st1" d="M1199.1,414.5c-4.4-3.2-6.8-7.5-7.3-13.1h7.9c0.4,3.4,2,6.1,4.8,8.2c2.8,2.1,6.6,3.1,11.4,3.1
		c4.2,0,7.5-1,9.9-3c2.4-2,3.6-4.4,3.6-7.4c0-2.1-0.7-3.7-2-5.1c-1.3-1.3-3-2.4-5-3.1c-2-0.8-4.8-1.6-8.2-2.5
		c-4.5-1.2-8.1-2.4-10.9-3.5c-2.8-1.2-5.2-2.9-7.1-5.2c-1.9-2.3-2.9-5.4-2.9-9.3c0-2.9,0.9-5.7,2.6-8.2s4.3-4.5,7.5-6
		c3.2-1.5,6.9-2.2,11-2.2c6.5,0,11.7,1.6,15.7,4.9c4,3.3,6.1,7.8,6.4,13.5h-7.7c-0.2-3.5-1.6-6.4-4.1-8.5c-2.5-2.2-6-3.3-10.4-3.3
		c-3.9,0-7.1,0.9-9.5,2.8c-2.4,1.8-3.6,4.1-3.6,6.8c0,2.4,0.7,4.3,2.1,5.8c1.4,1.5,3.2,2.7,5.3,3.5c2.1,0.8,5,1.8,8.6,2.8
		c4.3,1.2,7.8,2.3,10.4,3.4c2.6,1.1,4.8,2.7,6.6,4.9c1.8,2.1,2.8,5,2.9,8.5c0,3.2-0.9,6.1-2.6,8.7c-1.8,2.5-4.2,4.5-7.4,6
		c-3.2,1.5-6.8,2.2-10.9,2.2C1209.1,419.3,1203.5,417.7,1199.1,414.5z"/>
	<path class="st1" d="M1305.7,391.3h-49.9c0.2,4.6,1.3,8.5,3.3,11.7c2,3.2,4.6,5.7,7.8,7.3c3.2,1.7,6.8,2.5,10.6,2.5
		c5,0,9.2-1.2,12.6-3.6c3.4-2.4,5.7-5.7,6.8-9.8h8.2c-1.5,5.9-4.6,10.7-9.4,14.4c-4.8,3.7-10.9,5.6-18.1,5.6
		c-5.7,0-10.7-1.3-15.2-3.8c-4.5-2.5-8-6.1-10.5-10.8c-2.5-4.7-3.8-10.1-3.8-16.4c0-6.2,1.2-11.7,3.7-16.4c2.5-4.7,6-8.3,10.5-10.8
		c4.5-2.5,9.6-3.7,15.3-3.7c5.7,0,10.7,1.3,15,3.7c4.3,2.5,7.6,5.9,9.9,10.1c2.3,4.2,3.5,8.9,3.5,14.1
		C1305.9,387.9,1305.9,389.9,1305.7,391.3z M1295.4,373.6c-1.9-3.2-4.4-5.5-7.7-7.2c-3.2-1.6-6.8-2.4-10.6-2.4
		c-5.7,0-10.6,1.8-14.7,5.5c-4,3.7-6.3,8.9-6.7,15.5h42.3C1298.2,380.6,1297.3,376.8,1295.4,373.6z"/>
</g>
</svg>
