<?xml version="1.0" encoding="utf-8"?>
<!-- Generator: Adobe Illustrator 27.1.1, SVG Export Plug-In . SVG Version: 6.00 Build 0)  -->
<svg version="1.1" id="Camada_1" xmlns="http://www.w3.org/2000/svg" xmlns:xlink="http://www.w3.org/1999/xlink" x="0px" y="0px"
	 viewBox="0 0 1400 500" style="enable-background:new 0 0 1400 500;" xml:space="preserve">
<style type="text/css">
	.st0{fill:#E52635;}
	.st1{fill:#17233D;}
</style>
<path class="st0" d="M306.7,394.3c0,23.6,0.1,56.8,0.1,72.2c0,1.6,0.1,3.1,0.4,4.6c1.1,5,0.8,8.8,11.7,8.8c10.6,0,11.7-2.3,12.8-7.6
	c0.5-3.3,0.6-4.9,0.6-7.8c0.3-18.6,0.1-32,0.2-50.7c0.1-3,4.7-3.7,6.8-3.6c13.9,1,64.4,4.9,89.9,13.5c25.4,7.3,26.4,7.3,26.4,7.3
	s8.7,1.8,11.5-5.9c1.7-6.3,0.7-8.7-2.9-12c-4.3-3.3-20.8-14-26.1-31.1c-0.3-0.9,0.1-1.8,0.9-2.2c7.8-4.2,47.6-26.2,77.1-54.4
	c18.2-18.9,28-30.4,33.7-49.8c1.1-3.8,1.5-7.8,1.1-11.8c-0.5-4.6-2.3-10-7.4-12.1c-2.3-0.9-5-0.8-7.2,0.3c-1.3,0.6-2.8,1.6-4.5,3.1
	c-4.6,4.2-8.9,7.4-8.9,7.4s-1.7,1.4-0.9-1.6c1.2-3.2,16.4-34.5,18.7-62.9c0,0,3.1-17.4-6.8-17.1c-8.3,1-16.8,5-27.1,8.3
	c-10.3,3.3-20.7,5.2-28.7,0.1c-8-5.1-12.1-16.6-13.1-26.8c-1-8.5-5.5-10.7-10.8-10.9c-5.3,0-9.6,4.3-11.8,11.5
	c-3.4,7-8.6,22.6-38.6,40.7c-0.7,0.4-1.5-0.3-1.2-1c2.9-7.8,12.1-35,12.2-60.9c-0.4-27.9-2.3-36.2-7.8-47.4
	c-4.5-6.9-8.8-10.3-17-1.6c-8.2,8.7-14.8,13.4-26.1,2.1c-8.6-11.9-15.1-26-18.8-35.7c-3.7-9.7-12-29-15.5-33.8c-3.7-6-8-10.1-14.6,0
	c-6.1,10.3-10,20.7-13.3,28.3c-3.3,7.6-9.2,24.6-18.1,37.3c-8.2,9.7-13.8,14.2-23.8,7.1c-6.5-5.9-8.3-10-13.5-10.1
	c-5.1-0.1-9.2,4.4-12.3,15s-6.4,30.9-3.3,53.9c2.8,20,7.6,36.9,10.6,44.8c0.4,1.1-0.7,2.1-1.7,1.6c-6.6-3.4-23.2-14.1-37.5-40.1
	c0,0-4.2-11.5-12.1-11.4s-10.6,5.9-10.9,12.1c-0.8,6.6-4,27.4-22.9,28.3c-17.9-0.2-25.3-6.4-40.1-10.5c-13.8-3.9-12.9,7.9-12.9,7.9
	s0,29.2,15.3,61.9l3.5,8c0,0,2,5.7-2.8,1.4c-4.8-4.3-9.6-8.2-9.6-8.2s-8.9-5.6-14.5,5.1c-4.3,10.9,2,25.8,2,25.8
	s10.5,22.8,31.8,42.7c22.2,19.3,32.1,26.4,40.9,32.1c8.8,5.8,34.3,20.8,34.3,20.8s2.7,1.4,1.2,4.6c-1.7,3.6-5.1,13.2-22.1,26.8
	c-8.8,8.6-8,9.7-5.2,16.3s10.7,4.7,15,3.4c4-1.2,43.6-14.5,80.9-18c4.1-0.4,7.3-3.8,7.3-8v-3.1c0-5.8-5.1-10.3-10.8-9.7
	c-13.6,1.6-35.9,4.5-42.6,7.5c-4.2,1.4-8.4,3.3-5-2.8c4.3-6.9,5.5-13.8,6.1-16.4c0.6-2.6,1-7.6-4.4-11.5
	c-5.4-3.9-40.9-25.7-54.8-34.9c-13.8-9.2-43.8-35.3-47.8-46.2c0,0-4.3-6.4,2.2-3.4c6.5,3,19.1,2.4,23.5,2.3c4.6-0.6,9-2.9,9.7-8.3
	c0.6-5.5-1.5-8.1-3.2-9.9c-4.2-5-16-20.6-20.5-34.4c-4.5-13.8-5.3-16.4-6.7-22.2c-0.8-2.6-0.5-4,2.7-2.6c3.2,1.6,18.2,4.6,25.4,4.6
	c7.3,0,25.3-1.7,35.8-19.5c0,0,3.1-5.7,5.9-0.2c4.3,6.1,10.7,12.2,14.6,15.4c3.9,3.2,29.4,24.7,52.6,24.8c8.2,0.2,11.2-3.2,11.2-6.7
	s-3.5-10.2-8.5-19.6c-5-9.4-13.6-36.7-14.5-44.4c-0.9-4.9-2.5-30.3-0.3-40.8c0.5-1.8,1.3-2.6,2.9-1.8s7.2,3,12.5,3.2
	c5.3,0.2,17.6-2.1,25.4-11.6c8.3-10.6,16.8-22.2,25.4-40.5c0.4-0.8,0.8-1.7,1.1-2.6l1.4-3.5c0,0,1.5-4,3.2,0.2
	c1.8,4.7,11,25,16.6,32.3c5.6,7.3,13.2,19.1,26.9,24.1c13.9,3.1,17.1,0.4,22.4-1.9c1.5-0.8,2.5-1.6,2.8,1.5c0.3,3.1,1.9,19.2,1,30.2
	s-2.9,24.2-11.1,44.6c-6.6,14.9-8.1,17.7-10.8,22.4c-3,5.7-5.3,15.5,8.3,14.9c13.2-0.8,31.3-6.1,52.4-24.4
	c13.3-12,14.8-15.3,16.2-17.1c1-1.4,2.5-3.3,3.9-0.4c1.4,2.9,11.8,21.6,37.3,21.4c14.3,0.4,25.6-4.7,25.6-4.7s2.7-1.3,2,2.2
	c-0.7,3.6-6.9,28.5-16,41.5c-7.8,11.6-7.6,10.9-11.7,16.3c-3.5,3.8-2.5,9.3-2.5,9.3s0.9,9,16,8.4c15-0.6,17.9-2.8,17.9-2.8
	s5.3-3.2,2,2.3c-3.2,5.5-11.2,16.4-20.9,25c-9.7,8.6-16.5,14.4-23.5,19.4c-7,5-32.3,21.8-40.9,26.4c-8.6,4.6-10.4,5.5-15,8.1
	s-8.8,4.6-7.3,15.4c1.5,10.8,5.8,16.5,6.6,17.4c0.8,0.8,2.7,3.6-1.6,2.3s-45.6-9.1-66.7-9.6c-19.4-0.5-23.6-1-42-1.2
	C309.1,389.1,306.7,391.4,306.7,394.3z"/>
<g>
	<path class="st1" d="M655.1,357.7c3.4-6.2,8.1-11.1,14.1-14.6c6-3.5,12.6-5.2,20-5.2c8.9,0,16.6,2.1,23,6.4
		c6.4,4.2,11,10.2,13.9,17.9h-9.4c-2.3-5.4-5.8-9.7-10.5-12.7c-4.7-3.1-10.4-4.6-17-4.6c-5.9,0-11.2,1.4-15.9,4.1
		c-4.7,2.8-8.4,6.7-11.1,11.9c-2.7,5.2-4,11.1-4,17.9c0,6.8,1.3,12.8,4,17.9c2.7,5.1,6.4,9.1,11.1,11.8c4.7,2.8,10,4.1,15.9,4.1
		c6.7,0,12.3-1.5,17-4.5c4.7-3,8.2-7.2,10.5-12.6h9.4c-2.9,7.6-7.6,13.6-14,17.8c-6.4,4.2-14.1,6.3-22.9,6.3c-7.3,0-14-1.7-20-5.2
		c-6-3.5-10.7-8.3-14.1-14.5c-3.4-6.2-5.2-13.2-5.2-21.1C649.9,371,651.6,363.9,655.1,357.7z"/>
	<path class="st1" d="M742.1,370.7c2.6-4.9,6.1-8.6,10.7-11.2c4.5-2.6,9.7-4,15.4-4c6,0,11.1,1.4,15.4,4.1c4.3,2.8,7.4,6.3,9.3,10.6
		v-13.8h8V419h-8v-13.9c-2,4.3-5.1,7.8-9.5,10.6c-4.3,2.8-9.5,4.2-15.4,4.2c-5.7,0-10.8-1.3-15.3-4c-4.5-2.7-8.1-6.5-10.7-11.4
		c-2.6-4.9-3.8-10.6-3.8-17C738.2,381.2,739.5,375.5,742.1,370.7z M789.8,374.4c-2.1-3.8-4.9-6.8-8.4-8.8c-3.6-2.1-7.5-3.1-11.8-3.1
		c-4.4,0-8.4,1-11.9,3c-3.5,2-6.3,4.9-8.3,8.7c-2,3.8-3,8.3-3,13.5c0,5.1,1,9.6,3,13.5c2,3.9,4.8,6.8,8.3,8.8c3.5,2,7.5,3,11.9,3
		c4.3,0,8.2-1,11.8-3.1c3.6-2.1,6.4-5,8.4-8.8c2.1-3.8,3.1-8.3,3.1-13.3S791.9,378.2,789.8,374.4z"/>
	<path class="st1" d="M866.9,362.2c4.7,4.6,7.1,11.3,7.1,20.1V419h-7.9v-35.8c0-6.8-1.7-12-5.1-15.6c-3.4-3.6-8-5.4-13.9-5.4
		c-6,0-10.9,1.9-14.5,5.7c-3.6,3.8-5.4,9.4-5.4,16.9V419h-8v-62.6h8v10.7c2-3.8,4.9-6.7,8.6-8.8c3.7-2,8-3,12.7-3
		C856,355.2,862.2,357.6,866.9,362.2z"/>
	<path class="st1" d="M891.8,370.7c2.6-4.9,6.1-8.6,10.7-11.2c4.5-2.6,9.7-4,15.4-4c6,0,11.1,1.4,15.4,4.1c4.3,2.8,7.4,6.3,9.3,10.6
		v-13.8h8V419h-8v-13.9c-2,4.3-5.1,7.8-9.5,10.6c-4.3,2.8-9.5,4.2-15.4,4.2c-5.7,0-10.8-1.3-15.3-4c-4.5-2.7-8.1-6.5-10.7-11.4
		c-2.6-4.9-3.8-10.6-3.8-17C888,381.2,889.3,375.5,891.8,370.7z M939.6,374.4c-2.1-3.8-4.9-6.8-8.4-8.8c-3.6-2.1-7.5-3.1-11.8-3.1
		c-4.4,0-8.4,1-11.9,3c-3.5,2-6.3,4.9-8.3,8.7c-2,3.8-3,8.3-3,13.5c0,5.1,1,9.6,3,13.5c2,3.9,4.8,6.8,8.3,8.8c3.5,2,7.5,3,11.9,3
		c4.3,0,8.2-1,11.8-3.1c3.6-2.1,6.4-5,8.4-8.8c2.1-3.8,3.1-8.3,3.1-13.3S941.7,378.2,939.6,374.4z"/>
	<path class="st1" d="M969.2,370.7c2.6-4.9,6.2-8.6,10.7-11.2c4.5-2.6,9.7-4,15.4-4c5.5,0,10.5,1.3,14.9,4c4.4,2.7,7.7,6.2,9.7,10.4
		v-35.8h8V419h-8v-14c-1.9,4.4-5,7.9-9.4,10.7c-4.4,2.8-9.5,4.2-15.4,4.2c-5.7,0-10.9-1.3-15.4-4c-4.5-2.7-8.1-6.5-10.7-11.4
		c-2.6-4.9-3.8-10.6-3.8-17C965.3,381.2,966.6,375.5,969.2,370.7z M1016.9,374.4c-2.1-3.8-4.9-6.8-8.4-8.8
		c-3.6-2.1-7.5-3.1-11.8-3.1c-4.4,0-8.4,1-11.9,3c-3.5,2-6.3,4.9-8.3,8.7c-2,3.8-3,8.3-3,13.5c0,5.1,1,9.6,3,13.5
		c2,3.9,4.8,6.8,8.3,8.8c3.5,2,7.5,3,11.9,3c4.3,0,8.2-1,11.8-3.1c3.6-2.1,6.4-5,8.4-8.8c2.1-3.8,3.1-8.3,3.1-13.3
		S1019,378.2,1016.9,374.4z"/>
	<path class="st1" d="M1046.1,342.9c-1.1-1.1-1.7-2.6-1.7-4.2c0-1.7,0.6-3.1,1.7-4.2c1.1-1.1,2.5-1.7,4.1-1.7s3,0.6,4.1,1.7
		c1.1,1.1,1.7,2.5,1.7,4.2c0,1.7-0.6,3.1-1.7,4.2c-1.1,1.1-2.5,1.7-4.1,1.7S1047.3,344,1046.1,342.9z M1054.3,356.4V419h-8v-62.6
		H1054.3z"/>
	<path class="st1" d="M1072.6,370.7c2.6-4.9,6.1-8.6,10.7-11.2c4.5-2.6,9.7-4,15.4-4c6,0,11.1,1.4,15.4,4.1
		c4.3,2.8,7.4,6.3,9.3,10.6v-13.8h8V419h-8v-13.9c-2,4.3-5.1,7.8-9.5,10.6c-4.3,2.8-9.5,4.2-15.4,4.2c-5.7,0-10.8-1.3-15.3-4
		c-4.5-2.7-8.1-6.5-10.7-11.4c-2.6-4.9-3.8-10.6-3.8-17C1068.7,381.2,1070,375.5,1072.6,370.7z M1120.3,374.4
		c-2.1-3.8-4.9-6.8-8.4-8.8c-3.6-2.1-7.5-3.1-11.8-3.1c-4.4,0-8.4,1-11.9,3c-3.5,2-6.3,4.9-8.3,8.7c-2,3.8-3,8.3-3,13.5
		c0,5.1,1,9.6,3,13.5c2,3.9,4.8,6.8,8.3,8.8c3.5,2,7.5,3,11.9,3c4.3,0,8.2-1,11.8-3.1c3.6-2.1,6.4-5,8.4-8.8
		c2.1-3.8,3.1-8.3,3.1-13.3S1122.4,378.2,1120.3,374.4z"/>
	<path class="st1" d="M1197.4,362.2c4.7,4.6,7.1,11.3,7.1,20.1V419h-7.9v-35.8c0-6.8-1.7-12-5.1-15.6c-3.4-3.6-8-5.4-13.9-5.4
		c-6,0-10.9,1.9-14.5,5.7c-3.6,3.8-5.4,9.4-5.4,16.9V419h-8v-62.6h8v10.7c2-3.8,4.9-6.7,8.6-8.8c3.7-2,8-3,12.7-3
		C1186.6,355.2,1192.7,357.6,1197.4,362.2z"/>
	<path class="st1" d="M1233.7,416c-4.7-2.6-8.4-6.4-11.1-11.2c-2.7-4.9-4.1-10.5-4.1-17c0-6.5,1.4-12.2,4.1-17
		c2.8-4.9,6.5-8.6,11.2-11.2c4.7-2.6,10.1-4,15.9-4c5.9,0,11.2,1.3,16,4c4.8,2.6,8.5,6.4,11.2,11.2c2.7,4.9,4.1,10.5,4.1,17
		c0,6.4-1.4,12.1-4.1,17c-2.8,4.9-6.5,8.7-11.4,11.3c-4.8,2.6-10.2,4-16.1,4C1243.7,419.9,1238.4,418.6,1233.7,416z M1261.1,410.1
		c3.5-1.9,6.4-4.7,8.5-8.5c2.2-3.8,3.3-8.4,3.3-13.9s-1.1-10.1-3.2-13.9c-2.1-3.8-5-6.6-8.5-8.5c-3.5-1.9-7.3-2.8-11.5-2.8
		c-4.1,0-8,0.9-11.5,2.8c-3.5,1.9-6.3,4.7-8.4,8.5c-2.1,3.8-3.2,8.4-3.2,13.9s1,10.1,3.2,13.9c2.1,3.8,4.9,6.6,8.4,8.5
		c3.5,1.9,7.3,2.8,11.4,2.8S1257.5,412,1261.1,410.1z"/>
</g>
<g>
	<path class="st1" d="M716.8,163.5c9.3,0,17.9,1.5,25.7,4.5c7.8,3,14.6,7.3,20.2,13c5.7,5.7,10.1,12.7,13.2,21
		c3.2,8.3,4.8,17.8,4.8,28.4c0,2.7-0.1,4.9-0.4,6.7c-0.2,1.8-0.7,3.2-1.3,4.2c-0.6,1-1.5,1.7-2.5,2.2c-1.1,0.4-2.4,0.6-4,0.6h-91.3
		c1.1,15.2,5.1,26.3,12.2,33.4c7.1,7.1,16.5,10.7,28.2,10.7c5.8,0,10.7-0.7,14.9-2c4.2-1.3,7.8-2.8,10.9-4.5
		c3.1-1.6,5.9-3.1,8.2-4.5c2.4-1.3,4.6-2,6.8-2c1.4,0,2.7,0.3,3.7,0.9c1.1,0.6,2,1.4,2.7,2.4l10.4,13c-3.9,4.6-8.3,8.5-13.2,11.6
		c-4.9,3.1-10,5.6-15.3,7.5s-10.8,3.2-16.3,4c-5.5,0.8-10.9,1.2-16.1,1.2c-10.3,0-19.8-1.7-28.6-5.1c-8.8-3.4-16.5-8.4-23-15.1
		c-6.5-6.7-11.7-14.9-15.4-24.8c-3.7-9.8-5.6-21.2-5.6-34.2c0-10.1,1.6-19.6,4.9-28.4c3.3-8.9,7.9-16.6,14-23.2
		c6.1-6.6,13.5-11.8,22.3-15.6C695.8,165.5,705.7,163.5,716.8,163.5z M717.5,189c-10.4,0-18.5,2.9-24.3,8.8
		c-5.9,5.9-9.6,14.2-11.2,24.9h66.8c0-4.6-0.6-8.9-1.9-13c-1.2-4.1-3.2-7.7-5.8-10.7c-2.6-3.1-5.9-5.5-9.8-7.3
		C727.4,189.9,722.8,189,717.5,189z"/>
	<path class="st1" d="M941.6,126.2v28.6h-56.4v158.7h-34.9V154.8h-56.6v-28.6H941.6z"/>
	<path class="st1" d="M1109.4,313.5h-26.9c-3,0-5.5-0.8-7.5-2.3c-1.9-1.5-3.3-3.4-4.2-5.6l-14-38.2h-77.6l-14,38.2
		c-0.7,2-2.1,3.8-4.1,5.4c-2,1.6-4.5,2.5-7.4,2.5h-27.1l73.6-187.3h35.6L1109.4,313.5z M988.1,242.8h59.7l-22.8-62.3
		c-1-2.8-2.2-6-3.4-9.8c-1.3-3.8-2.5-7.8-3.7-12.2c-1.2,4.4-2.4,8.5-3.6,12.3c-1.2,3.8-2.3,7.1-3.4,10L988.1,242.8z"/>
</g>
</svg>
