<?xml version="1.0" encoding="utf-8"?>
<!-- Generator: Adobe Illustrator 27.1.1, SVG Export Plug-In . SVG Version: 6.00 Build 0)  -->
<svg version="1.1" id="Camada_1" xmlns="http://www.w3.org/2000/svg" xmlns:xlink="http://www.w3.org/1999/xlink" x="0px" y="0px"
	 viewBox="0 0 1400 500" style="enable-background:new 0 0 1400 500;" xml:space="preserve">
<style type="text/css">
	.st0{fill:#E52635;}
	.st1{fill:#17233D;}
</style>
<path class="st0" d="M307,394.7c0,23.6,0.1,56.8,0.1,72.3c0,1.6,0.1,3.1,0.4,4.6c1.1,5,0.8,8.8,11.7,8.8c10.6,0,11.7-2.3,12.8-7.6
	c0.5-3.3,0.6-4.9,0.6-7.8c0.3-18.6,0.1-32,0.2-50.7c0.1-3,4.7-3.7,6.8-3.6c13.9,1,64.5,4.9,90,13.5c25.4,7.3,26.4,7.3,26.4,7.3
	s8.7,1.8,11.5-5.9c1.7-6.3,0.7-8.7-2.9-12c-4.3-3.3-20.8-14.1-26.1-31.1c-0.3-0.9,0.1-1.8,0.9-2.2c7.8-4.2,47.6-26.2,77.2-54.5
	c18.2-19,28-30.4,33.7-49.8c1.1-3.8,1.5-7.8,1.1-11.8c-0.5-4.6-2.3-10-7.4-12.1c-2.3-0.9-5-0.8-7.2,0.3c-1.3,0.6-2.8,1.6-4.5,3.1
	c-4.6,4.2-8.9,7.4-8.9,7.4s-1.7,1.4-0.9-1.6c1.2-3.2,16.5-34.5,18.7-62.9c0,0,3.1-17.4-6.8-17.2c-8.3,1-16.8,5.1-27.1,8.3
	c-10.3,3.3-20.7,5.2-28.7,0.1c-8-5.1-12.1-16.6-13.1-26.8c-1-8.5-5.5-10.7-10.8-10.9c-5.3,0-9.6,4.3-11.8,11.5
	c-3.4,7-8.6,22.6-38.6,40.8c-0.7,0.4-1.5-0.3-1.2-1c2.9-7.8,12.1-35,12.2-60.9c-0.4-27.9-2.3-36.2-7.8-47.5
	c-4.5-6.9-8.8-10.3-17-1.6s-14.8,13.4-26.1,2.1c-8.6-11.9-15.1-26-18.8-35.7s-12-29-15.5-33.9c-3.7-6-8-10.1-14.6,0
	c-6.1,10.3-10,20.8-13.3,28.3c-3.3,7.6-9.2,24.6-18.1,37.3c-8.2,9.7-13.8,14.2-23.8,7.1c-6.5-5.9-8.3-10-13.5-10.1
	c-5.1-0.1-9.2,4.4-12.3,15.1s-6.5,31-3.3,54c2.8,20,7.6,36.9,10.6,44.8c0.4,1.1-0.7,2.1-1.7,1.6c-6.7-3.4-23.2-14.1-37.5-40.2
	c0,0-4.2-11.5-12.1-11.4c-7.9,0.1-10.6,5.9-10.9,12.1c-0.8,6.6-4,27.4-22.9,28.3c-17.9-0.2-25.3-6.4-40.1-10.5
	c-13.8-3.9-12.9,7.9-12.9,7.9s0,29.2,15.3,61.9l3.5,8c0,0,2,5.8-2.8,1.4c-4.8-4.3-9.6-8.2-9.6-8.2s-8.9-5.6-14.5,5.1
	c-4.3,10.9,2,25.8,2,25.8s10.5,22.8,31.8,42.7c22.3,19.3,32.2,26.4,41,32.2c8.8,5.8,34.4,20.8,34.4,20.8s2.7,1.4,1.2,4.6
	c-1.7,3.6-5.1,13.3-22.1,26.8c-8.8,8.6-8,9.7-5.2,16.3s10.7,4.7,15,3.4c4-1.2,43.7-14.5,81-18c4.1-0.4,7.3-3.8,7.3-8v-3.1
	c0-5.8-5.1-10.3-10.8-9.7c-13.6,1.6-35.9,4.5-42.7,7.5c-4.2,1.4-8.4,3.3-5.1-2.8c4.3-6.9,5.5-13.8,6.1-16.5s1-7.6-4.4-11.5
	s-41-25.7-54.8-34.9c-13.8-9.2-43.9-35.3-47.8-46.2c0,0-4.3-6.5,2.2-3.4s19.1,2.4,23.5,2.3c4.6-0.6,9-2.9,9.7-8.3s-1.5-8.1-3.2-9.9
	c-4.2-5-16-20.6-20.5-34.5c-4.5-13.8-5.3-16.5-6.7-22.3c-0.8-2.6-0.5-4,2.7-2.6c3.2,1.6,18.2,4.6,25.5,4.6s25.3-1.7,35.8-19.5
	c0,0,3.1-5.8,5.9-0.2c4.3,6.1,10.7,12.2,14.6,15.4c3.9,3.2,29.4,24.7,52.6,24.8c8.2,0.2,11.2-3.2,11.2-6.7s-3.5-10.2-8.5-19.6
	c-5.1-9.4-13.6-36.8-14.5-44.4c-0.9-4.9-2.5-30.3-0.3-40.9c0.5-1.8,1.3-2.6,2.9-1.8c1.7,0.8,7.2,3,12.5,3.3
	c5.3,0.2,17.6-2.1,25.5-11.6c8.3-10.6,16.8-22.3,25.4-40.5c0.4-0.8,0.8-1.7,1.1-2.6l1.4-3.5c0,0,1.5-4,3.2,0.2
	c1.8,4.7,11,25,16.6,32.3c5.6,7.3,13.2,19.1,26.9,24.1c13.9,3.1,17.1,0.4,22.4-1.9c1.5-0.8,2.5-1.6,2.8,1.5s1.9,19.2,1,30.2
	c-0.8,11-2.9,24.2-11.1,44.7c-6.6,14.9-8.1,17.7-10.8,22.4c-3,5.7-5.3,15.5,8.3,14.9c13.3-0.8,31.3-6.1,52.5-24.4
	c13.3-12,14.8-15.3,16.2-17.1c1-1.4,2.5-3.3,3.9-0.4c1.4,2.9,11.8,21.6,37.3,21.4c14.3,0.4,25.6-4.7,25.6-4.7s2.7-1.3,2,2.2
	c-0.7,3.6-6.9,28.5-16,41.5c-7.8,11.6-7.6,10.9-11.7,16.3c-3.5,3.8-2.5,9.4-2.5,9.4s0.9,9,16,8.4c15.1-0.6,17.9-2.8,17.9-2.8
	s5.3-3.2,2,2.3s-11.2,16.4-20.9,25c-9.7,8.6-16.5,14.4-23.5,19.4c-7,5.1-32.4,21.8-41,26.4s-10.4,5.5-15,8.1s-8.8,4.6-7.3,15.4
	s5.8,16.6,6.6,17.4c0.8,0.8,2.7,3.6-1.6,2.3c-4.3-1.3-45.6-9.1-66.8-9.6c-19.4-0.5-23.6-1-42-1.2C309.4,389.5,307,391.8,307,394.7z"
	/>
<g>
	<path class="st1" d="M655.6,358.1c3.4-6.2,8.1-11.1,14.1-14.6s12.6-5.2,20-5.2c9,0,16.6,2.1,23,6.4c6.4,4.2,11,10.2,13.9,18h-9.4
		c-2.3-5.4-5.8-9.7-10.5-12.7c-4.7-3.1-10.4-4.6-17-4.6c-5.9,0-11.2,1.4-15.9,4.1c-4.7,2.8-8.4,6.7-11.1,11.9c-2.7,5.2-4,11.2-4,18
		s1.3,12.8,4,17.9s6.4,9.1,11.1,11.8c4.7,2.8,10,4.1,15.9,4.1c6.7,0,12.3-1.5,17-4.5s8.2-7.2,10.5-12.6h9.4
		c-2.9,7.7-7.6,13.6-14,17.8c-6.4,4.2-14.1,6.3-23,6.3c-7.3,0-14-1.7-20-5.2s-10.7-8.3-14.1-14.5c-3.4-6.2-5.2-13.2-5.2-21.1
		C650.5,371.4,652.2,364.4,655.6,358.1z"/>
	<path class="st1" d="M742.7,371.1c2.6-4.9,6.1-8.6,10.7-11.2c4.6-2.6,9.7-4,15.4-4c6,0,11.1,1.4,15.4,4.1c4.3,2.8,7.4,6.3,9.4,10.6
		v-13.8h8v62.7h-8v-13.9c-2,4.3-5.1,7.8-9.5,10.6c-4.3,2.8-9.5,4.2-15.4,4.2c-5.7,0-10.8-1.3-15.3-4c-4.6-2.7-8.1-6.5-10.7-11.4
		c-2.6-4.9-3.8-10.6-3.8-17C738.8,381.6,740.1,376,742.7,371.1z M790.5,374.8c-2.1-3.8-4.9-6.8-8.4-8.8c-3.6-2.1-7.5-3.1-11.8-3.1
		c-4.4,0-8.4,1-11.9,3s-6.3,4.9-8.3,8.7c-2,3.8-3,8.3-3,13.5c0,5.1,1,9.6,3,13.5s4.8,6.8,8.3,8.8s7.5,3,11.9,3c4.3,0,8.2-1,11.8-3.1
		s6.4-5,8.4-8.8c2.1-3.8,3.1-8.3,3.1-13.3C793.6,383.1,792.5,378.7,790.5,374.8z"/>
	<path class="st1" d="M867.6,362.6c4.7,4.6,7.1,11.3,7.1,20.1v36.7h-7.9v-35.8c0-6.8-1.7-12-5.1-15.6c-3.4-3.6-8.1-5.4-13.9-5.4
		c-6,0-10.9,1.9-14.5,5.7c-3.6,3.8-5.4,9.5-5.4,16.9v34.2h-8v-62.7h8v10.7c2-3.8,4.9-6.8,8.6-8.8c3.7-2,8-3,12.7-3
		C856.7,355.7,862.9,358,867.6,362.6z"/>
	<path class="st1" d="M892.6,371.1c2.6-4.9,6.1-8.6,10.7-11.2c4.6-2.6,9.7-4,15.4-4c6,0,11.1,1.4,15.4,4.1c4.3,2.8,7.4,6.3,9.4,10.6
		v-13.8h8v62.7h-8v-13.9c-2,4.3-5.1,7.8-9.5,10.6c-4.3,2.8-9.5,4.2-15.4,4.2c-5.7,0-10.8-1.3-15.3-4c-4.6-2.7-8.1-6.5-10.7-11.4
		c-2.6-4.9-3.8-10.6-3.8-17C888.7,381.6,890,376,892.6,371.1z M940.4,374.8c-2.1-3.8-4.9-6.8-8.4-8.8c-3.6-2.1-7.5-3.1-11.8-3.1
		c-4.4,0-8.4,1-11.9,3s-6.3,4.9-8.3,8.7c-2,3.8-3,8.3-3,13.5c0,5.1,1,9.6,3,13.5s4.8,6.8,8.3,8.8s7.5,3,11.9,3c4.3,0,8.2-1,11.8-3.1
		s6.4-5,8.4-8.8c2.1-3.8,3.1-8.3,3.1-13.3C943.5,383.1,942.4,378.7,940.4,374.8z"/>
	<path class="st1" d="M970,371.1c2.6-4.9,6.2-8.6,10.7-11.2c4.6-2.6,9.7-4,15.4-4c5.5,0,10.5,1.3,14.9,4s7.7,6.2,9.8,10.4v-35.8h8
		v84.9h-8v-14c-1.9,4.4-5,7.9-9.4,10.7c-4.4,2.8-9.5,4.2-15.4,4.2c-5.7,0-10.9-1.3-15.4-4c-4.6-2.7-8.1-6.5-10.7-11.4
		c-2.6-4.9-3.8-10.6-3.8-17C966.1,381.6,967.4,376,970,371.1z M1017.7,374.8c-2.1-3.8-4.9-6.8-8.4-8.8c-3.6-2.1-7.5-3.1-11.8-3.1
		c-4.4,0-8.4,1-11.9,3s-6.3,4.9-8.3,8.7c-2,3.8-3,8.3-3,13.5c0,5.1,1,9.6,3,13.5s4.8,6.8,8.3,8.8s7.5,3,11.9,3c4.3,0,8.2-1,11.8-3.1
		s6.4-5,8.4-8.8c2.1-3.8,3.1-8.3,3.1-13.3C1020.8,383.1,1019.8,378.7,1017.7,374.8z"/>
	<path class="st1" d="M1103.6,391.2h-52c0.2,4.7,1.4,8.8,3.4,12.2c2.1,3.4,4.8,5.9,8.1,7.6c3.4,1.7,7,2.6,11,2.6
		c5.2,0,9.6-1.3,13.1-3.8c3.6-2.5,5.9-5.9,7.1-10.2h8.5c-1.5,6.1-4.8,11.1-9.8,15s-11.3,5.8-18.9,5.8c-5.9,0-11.2-1.3-15.8-4
		c-4.7-2.6-8.3-6.4-11-11.2c-2.6-4.9-4-10.5-4-17s1.3-12.2,3.9-17.1s6.2-8.6,10.9-11.2c4.7-2.6,10-3.9,16-3.9s11.2,1.3,15.7,3.9
		s7.9,6.1,10.3,10.5s3.6,9.3,3.6,14.6C1103.8,387.7,1103.7,389.8,1103.6,391.2z M1092.8,372.8c-2-3.3-4.6-5.8-8-7.5s-7-2.5-11-2.5
		c-6,0-11.1,1.9-15.3,5.7c-4.2,3.8-6.5,9.2-7,16.2h44.1C1095.7,380,1094.8,376.1,1092.8,372.8z"/>
	<path class="st1" d="M1166.1,362.6c4.7,4.6,7.1,11.3,7.1,20.1v36.7h-7.9v-35.8c0-6.8-1.7-12-5.1-15.6s-8.1-5.4-13.9-5.4
		c-6,0-10.9,1.9-14.5,5.7c-3.6,3.8-5.4,9.5-5.4,16.9v34.2h-8v-62.7h8v10.7c2-3.8,4.9-6.8,8.6-8.8s8-3,12.7-3
		C1155.2,355.7,1161.4,358,1166.1,362.6z"/>
	<path class="st1" d="M1194.9,415.4c-4.6-3.3-7.1-7.9-7.6-13.6h8.3c0.4,3.5,2,6.4,5,8.5c2.9,2.2,6.9,3.3,11.9,3.3
		c4.4,0,7.8-1,10.3-3.1s3.7-4.6,3.7-7.7c0-2.1-0.7-3.9-2.1-5.3s-3.1-2.5-5.2-3.3s-5-1.7-8.5-2.6c-4.7-1.2-8.5-2.4-11.4-3.7
		c-2.9-1.2-5.4-3-7.4-5.5c-2-2.4-3-5.6-3-9.7c0-3.1,0.9-5.9,2.8-8.5c1.8-2.6,4.4-4.7,7.8-6.2s7.2-2.3,11.5-2.3
		c6.7,0,12.2,1.7,16.3,5.1c4.1,3.4,6.3,8.1,6.7,14.1h-8c-0.2-3.7-1.7-6.6-4.3-8.9c-2.6-2.3-6.3-3.4-10.8-3.4c-4.1,0-7.3,1-9.9,2.9
		c-2.5,1.9-3.8,4.3-3.8,7.1c0,2.5,0.7,4.5,2.2,6c1.5,1.6,3.3,2.8,5.6,3.7c2.2,0.9,5.2,1.9,9,2.9c4.5,1.2,8.1,2.4,10.8,3.6
		c2.7,1.1,5,2.8,6.9,5s2.9,5.2,3,8.8c0,3.4-0.9,6.4-2.8,9c-1.8,2.6-4.4,4.7-7.7,6.3c-3.3,1.5-7.1,2.3-11.4,2.3
		C1205.3,420.4,1199.4,418.7,1194.9,415.4z"/>
	<path class="st1" d="M1305.8,391.2h-52c0.2,4.7,1.4,8.8,3.4,12.2c2.1,3.4,4.8,5.9,8.1,7.6c3.4,1.7,7,2.6,11,2.6
		c5.2,0,9.6-1.3,13.1-3.8c3.6-2.5,5.9-5.9,7.1-10.2h8.5c-1.5,6.1-4.8,11.1-9.8,15s-11.3,5.8-18.9,5.8c-5.9,0-11.2-1.3-15.8-4
		c-4.7-2.6-8.3-6.4-11-11.2c-2.6-4.9-4-10.5-4-17s1.3-12.2,3.9-17.1s6.2-8.6,10.9-11.2c4.7-2.6,10-3.9,16-3.9s11.2,1.3,15.7,3.9
		s7.9,6.1,10.3,10.5s3.6,9.3,3.6,14.6C1306,387.7,1305.9,389.8,1305.8,391.2z M1295,372.8c-2-3.3-4.6-5.8-8-7.5s-7-2.5-11-2.5
		c-6,0-11.1,1.9-15.3,5.7c-4.2,3.8-6.5,9.2-7,16.2h44.1C1297.9,380,1297,376.1,1295,372.8z"/>
</g>
<g>
	<path class="st1" d="M717.4,163.8c9.3,0,17.9,1.5,25.7,4.5s14.6,7.3,20.2,13c5.7,5.7,10.1,12.7,13.3,21s4.8,17.8,4.8,28.5
		c0,2.7-0.1,4.9-0.4,6.7c-0.2,1.8-0.7,3.2-1.3,4.2s-1.5,1.7-2.5,2.2c-1.1,0.4-2.4,0.6-4,0.6h-91.3c1.1,15.2,5.1,26.3,12.2,33.4
		c7.1,7.1,16.5,10.7,28.2,10.7c5.8,0,10.7-0.7,14.9-2s7.8-2.8,10.9-4.5c3.1-1.6,5.9-3.1,8.2-4.5c2.4-1.3,4.6-2,6.8-2
		c1.4,0,2.7,0.3,3.7,0.9c1.1,0.6,2,1.4,2.7,2.4l10.4,13c-3.9,4.6-8.4,8.5-13.3,11.6c-4.9,3.1-10,5.6-15.3,7.5s-10.8,3.2-16.3,4
		s-10.9,1.2-16.1,1.2c-10.3,0-19.8-1.7-28.7-5.1c-8.8-3.4-16.5-8.5-23-15.1c-6.5-6.7-11.7-14.9-15.4-24.8
		c-3.7-9.8-5.6-21.3-5.6-34.2c0-10.1,1.6-19.6,4.9-28.5c3.3-8.9,7.9-16.6,14-23.2c6.1-6.6,13.5-11.8,22.3-15.6
		C696.4,165.7,706.3,163.8,717.4,163.8z M718.1,189.3c-10.4,0-18.5,2.9-24.3,8.8c-5.9,5.9-9.6,14.2-11.2,24.9h66.8
		c0-4.6-0.6-9-1.9-13c-1.3-4.1-3.2-7.7-5.8-10.7c-2.6-3.1-5.9-5.5-9.8-7.3S723.4,189.3,718.1,189.3z"/>
	<path class="st1" d="M942.3,126.5v28.7h-56.4V314H851V155.1h-56.7v-28.7L942.3,126.5L942.3,126.5z"/>
	<path class="st1" d="M1110.2,313.9h-27c-3,0-5.5-0.8-7.5-2.3c-1.9-1.5-3.4-3.4-4.2-5.6l-14-38.2h-77.7l-14,38.2
		c-0.7,2-2.1,3.8-4.1,5.4s-4.5,2.5-7.5,2.5h-27.1l73.6-187.5h35.7L1110.2,313.9z M988.9,243.1h59.8l-22.8-62.4c-1-2.8-2.2-6-3.4-9.8
		c-1.3-3.8-2.5-7.8-3.7-12.3c-1.2,4.4-2.4,8.5-3.6,12.3c-1.2,3.8-2.3,7.1-3.4,10L988.9,243.1z"/>
</g>
</svg>
