<?xml version="1.0" encoding="utf-8"?>
<!-- Generator: Adobe Illustrator 27.1.1, SVG Export Plug-In . SVG Version: 6.00 Build 0)  -->
<svg version="1.1" id="Camada_1" xmlns="http://www.w3.org/2000/svg" xmlns:xlink="http://www.w3.org/1999/xlink" x="0px" y="0px"
	 viewBox="0 0 904 372.1" style="enable-background:new 0 0 904 372.1;" xml:space="preserve">
<style type="text/css">
	.st0{display:none;clip-path:url(#SVGID_00000034086501853629094250000011161805501127697816_);fill:#212F5C;}
	.st1{clip-path:url(#SVGID_00000034086501853629094250000011161805501127697816_);}
	.st2{display:none;}
	.st3{display:inline;fill:#FFFFFF;}
	.st4{fill:#CD1426;}
	.st5{fill:#212F5C;}
	.st6{fill:#010202;}
</style>
<g>
	<g>
		<defs>
			<polyline id="SVGID_1_" points="354.1,17.8 354.1,354.3 17.6,354.3 17.6,17.8 			"/>
		</defs>
		<clipPath id="SVGID_00000083065660215400194280000004499562671647852456_">
			<use xlink:href="#SVGID_1_"  style="overflow:visible;"/>
		</clipPath>
		<polygon style="display:none;clip-path:url(#SVGID_00000083065660215400194280000004499562671647852456_);fill:#212F5C;" points="
			707.3,354.3 17.6,354.3 17.6,326.2 17.6,148.3 17.6,17.8 707.3,17.8 		"/>
		<g style="clip-path:url(#SVGID_00000083065660215400194280000004499562671647852456_);">
			<g class="st2">
				<polygon class="st3" points="690.7,148.6 391.5,148.6 391.5,17.8 316.7,17.8 316.7,148.6 17.6,148.6 17.6,223.4 316.7,223.4 
					316.7,354.3 391.5,354.3 391.5,223.4 690.7,223.4 				"/>
				<polyline class="st3" points="17.6,17.8 73.7,17.8 354.1,158 634.6,17.8 690.7,17.8 690.7,45.9 410.3,186 690.7,326.2 
					690.7,354.3 634.6,354.3 354.1,214.1 73.7,354.3 17.6,354.3 17.6,326.2 298,186 223.2,148.6 17.6,45.9 				"/>
			</g>
			<g>
				<polygon class="st4" points="690.7,163.9 376.2,163.9 376.2,17.8 332,17.8 332,163.9 17.6,163.9 17.6,208.1 332,208.1 
					332,354.3 376.2,354.3 376.2,208.1 690.7,208.1 				"/>
				<g>
					<polygon points="660.1,17.8 391.5,148.6 422.1,148.6 690.7,17.8 					"/>
					<polygon class="st4" points="275.4,148.6 17.6,17.8 17.6,35.5 244.8,148.6 					"/>
					<polygon points="432.9,223.4 690.7,354.3 690.7,336.6 463.5,223.4 					"/>
					<polygon class="st4" points="17.6,354.3 48.2,354.3 316.7,223.4 286.1,223.4 					"/>
				</g>
				<g>
					<polygon class="st5" points="73.7,17.8 316.7,139.3 316.7,17.8 					"/>
					<path class="st5" d="M223.2,148.6l-205.6,0V45.9L223.2,148.6c0,0-0.5-0.1-0.5-0.1"/>
					<polygon class="st5" points="17.6,326.2 223.2,223.4 17.6,223.4 					"/>
					<polygon class="st5" points="73.7,354.3 316.7,354.3 316.7,232.8 					"/>
				</g>
			</g>
		</g>
	</g>
	<g>
		<path class="st6" d="M444.9,103.3c6.9,0,13.2,1.1,18.9,3.3c5.8,2.2,10.7,5.4,14.9,9.6c4.2,4.2,7.4,9.4,9.8,15.5
			c2.3,6.1,3.5,13.1,3.5,20.9c0,2-0.1,3.6-0.3,4.9c-0.2,1.3-0.5,2.3-1,3.1c-0.5,0.7-1.1,1.3-1.9,1.6c-0.8,0.3-1.8,0.5-3,0.5h-67.2
			c0.8,11.2,3.8,19.4,9,24.6c5.2,5.2,12.2,7.8,20.8,7.8c4.2,0,7.9-0.5,11-1.5c3.1-1,5.8-2.1,8.1-3.3c2.3-1.2,4.3-2.3,6-3.3
			c1.7-1,3.4-1.5,5-1.5c1.1,0,2,0.2,2.8,0.6c0.8,0.4,1.4,1,2,1.8l7.6,9.5c-2.9,3.4-6.1,6.2-9.8,8.5c-3.6,2.3-7.4,4.1-11.3,5.5
			c-3.9,1.4-7.9,2.3-12,2.9c-4.1,0.6-8,0.8-11.8,0.8c-7.6,0-14.6-1.3-21.1-3.8c-6.5-2.5-12.2-6.2-17-11.1c-4.8-4.9-8.6-11-11.3-18.2
			c-2.8-7.2-4.1-15.6-4.1-25.2c0-7.4,1.2-14.4,3.6-20.9c2.4-6.5,5.8-12.2,10.3-17.1c4.5-4.8,10-8.7,16.4-11.5
			C429.5,104.7,436.8,103.3,444.9,103.3z M445.4,122c-7.6,0-13.6,2.2-17.9,6.5c-4.3,4.3-7.1,10.4-8.3,18.3h49.2
			c0-3.4-0.5-6.6-1.4-9.6c-0.9-3-2.3-5.6-4.2-7.9c-1.9-2.3-4.3-4-7.2-5.4C452.7,122.7,449.3,122,445.4,122z"/>
		<path class="st6" d="M620.6,60.4v23.4h-46.1v129.8H546V83.9h-46.3V60.4H620.6z"/>
		<path class="st6" d="M755.7,213.7h-22c-2.5,0-4.5-0.6-6.1-1.9c-1.6-1.2-2.7-2.8-3.4-4.6L712.7,176h-63.5l-11.4,31.3
			c-0.6,1.6-1.7,3.1-3.3,4.5c-1.7,1.3-3.7,2-6.1,2h-22.2l60.2-153.3h29.1L755.7,213.7z M656.5,155.8h48.9l-18.7-51
			c-0.8-2.3-1.8-4.9-2.8-8c-1-3.1-2-6.4-3-10c-1,3.6-2,7-2.9,10.1c-1,3.1-1.9,5.8-2.8,8.2L656.5,155.8z"/>
		<path class="st6" d="M407.2,277.8v32.9h-10.6v-78.8h22.3c5,0,9.3,0.5,12.9,1.5c3.6,1,6.6,2.5,9,4.4c2.4,1.9,4.1,4.2,5.3,6.9
			c1.1,2.7,1.7,5.7,1.7,9c0,2.8-0.4,5.4-1.3,7.8s-2.2,4.6-3.8,6.5c-1.7,1.9-3.7,3.6-6.1,4.9c-2.4,1.4-5.1,2.4-8.2,3.1
			c1.3,0.8,2.5,1.9,3.5,3.4l23,31.3h-9.5c-1.9,0-3.4-0.8-4.3-2.3l-20.5-28.2c-0.6-0.9-1.3-1.5-2-1.9c-0.7-0.4-1.8-0.6-3.3-0.6H407.2
			z M407.2,270.1h11.2c3.1,0,5.9-0.4,8.2-1.1c2.4-0.8,4.3-1.8,5.9-3.2c1.6-1.4,2.8-3,3.6-4.9c0.8-1.9,1.2-4,1.2-6.3
			c0-4.7-1.5-8.2-4.6-10.6c-3.1-2.4-7.7-3.6-13.8-3.6h-11.7V270.1z"/>
		<path class="st6" d="M478.1,254.1c3.3,0,6.4,0.6,9.2,1.7c2.8,1.1,5.3,2.7,7.3,4.8c2.1,2.1,3.7,4.7,4.8,7.8
			c1.2,3.1,1.7,6.6,1.7,10.6c0,1.5-0.2,2.6-0.5,3.1s-1,0.8-1.9,0.8h-37.1c0.1,3.5,0.5,6.6,1.4,9.2c0.9,2.6,2.1,4.8,3.6,6.5
			c1.5,1.7,3.4,3,5.5,3.9c2.1,0.9,4.5,1.3,7.1,1.3c2.5,0,4.6-0.3,6.4-0.9s3.3-1.2,4.6-1.8c1.3-0.7,2.4-1.3,3.2-1.8
			c0.9-0.6,1.6-0.9,2.2-0.9c0.8,0,1.4,0.3,1.9,0.9l2.8,3.6c-1.2,1.5-2.7,2.7-4.3,3.8s-3.5,2-5.4,2.7c-1.9,0.7-3.9,1.2-6,1.6
			c-2.1,0.3-4.1,0.5-6.1,0.5c-3.8,0-7.4-0.7-10.6-2c-3.2-1.3-6.1-3.2-8.4-5.7c-2.4-2.5-4.2-5.6-5.5-9.3c-1.3-3.7-2-8-2-12.8
			c0-3.9,0.6-7.5,1.8-10.9c1.2-3.4,2.9-6.3,5.1-8.8c2.2-2.5,5-4.4,8.2-5.8C470.4,254.8,474,254.1,478.1,254.1z M478.3,261.3
			c-4.7,0-8.5,1.4-11.2,4.1c-2.7,2.7-4.4,6.5-5.1,11.4h30.3c0-2.3-0.3-4.4-0.9-6.2c-0.6-1.9-1.5-3.5-2.8-4.9s-2.7-2.4-4.4-3.2
			S480.5,261.3,478.3,261.3z"/>
		<path class="st6" d="M518,237.5c0,1-0.2,1.8-0.6,2.7c-0.4,0.8-0.9,1.6-1.5,2.2c-0.6,0.6-1.4,1.1-2.2,1.5c-0.8,0.4-1.7,0.5-2.7,0.5
			c-1,0-1.8-0.2-2.7-0.5c-0.8-0.4-1.6-0.9-2.2-1.5c-0.6-0.6-1.1-1.4-1.5-2.2c-0.4-0.8-0.5-1.7-0.5-2.7c0-1,0.2-1.9,0.5-2.7
			c0.4-0.9,0.9-1.6,1.5-2.3c0.6-0.6,1.4-1.1,2.2-1.5c0.8-0.4,1.7-0.5,2.7-0.5c1,0,1.9,0.2,2.7,0.5c0.8,0.4,1.6,0.9,2.2,1.5
			c0.6,0.6,1.2,1.4,1.5,2.3C517.8,235.6,518,236.5,518,237.5z M515.8,255v55.7H506V255H515.8z"/>
		<path class="st6" d="M524.2,310.7V255h5.8c1.4,0,2.3,0.7,2.6,2l0.8,6.1c2.4-2.7,5.1-4.8,8.1-6.5c3-1.7,6.4-2.5,10.4-2.5
			c3,0,5.7,0.5,8.1,1.5c2.3,1,4.3,2.4,5.8,4.3c1.6,1.9,2.7,4.1,3.5,6.7c0.8,2.6,1.2,5.5,1.2,8.6v35.5h-9.8v-35.5
			c0-4.2-1-7.5-2.9-9.8c-1.9-2.3-4.9-3.5-8.8-3.5c-2.9,0-5.6,0.7-8.1,2.1s-4.8,3.3-7,5.7v41H524.2z"/>
		<path class="st6" d="M599.1,254.1c4.1,0,7.7,0.7,11,2c3.3,1.4,6.1,3.3,8.4,5.8c2.3,2.5,4.1,5.5,5.3,9c1.2,3.5,1.8,7.5,1.8,11.9
			c0,4.4-0.6,8.4-1.8,11.9c-1.2,3.5-3,6.5-5.3,9c-2.3,2.5-5.1,4.4-8.4,5.7c-3.3,1.3-7,2-11,2s-7.7-0.7-11-2
			c-3.3-1.3-6.1-3.3-8.4-5.7c-2.3-2.5-4.1-5.5-5.3-9c-1.2-3.5-1.9-7.5-1.9-11.9c0-4.4,0.6-8.3,1.9-11.9c1.2-3.5,3-6.6,5.3-9
			c2.3-2.5,5.1-4.4,8.4-5.8C591.4,254.8,595.1,254.1,599.1,254.1z M599.1,303.8c5.5,0,9.6-1.8,12.3-5.5c2.7-3.7,4.1-8.8,4.1-15.4
			c0-6.6-1.4-11.8-4.1-15.5c-2.7-3.7-6.8-5.6-12.3-5.6c-2.8,0-5.2,0.5-7.3,1.4c-2.1,1-3.8,2.3-5.1,4.1c-1.4,1.8-2.4,4-3.1,6.6
			c-0.7,2.6-1,5.6-1,8.9c0,3.3,0.3,6.3,1,8.9c0.7,2.6,1.7,4.8,3.1,6.6c1.4,1.8,3.1,3.1,5.1,4.1C593.9,303.3,596.3,303.8,599.1,303.8
			z"/>
		<path class="st6" d="M673.5,302.2c3.3,0,6.2-0.6,8.7-1.7c2.6-1.1,4.7-2.6,6.5-4.6c1.8-2,3.1-4.3,4.1-7.1c0.9-2.8,1.4-5.8,1.4-9.1
			v-47.9h10.6v47.9c0,4.5-0.7,8.8-2.2,12.7c-1.4,3.9-3.5,7.3-6.2,10.1c-2.7,2.8-6,5.1-9.9,6.7c-3.9,1.6-8.2,2.4-13.1,2.4
			s-9.2-0.8-13.1-2.4c-3.9-1.6-7.2-3.8-9.9-6.7c-2.7-2.8-4.8-6.2-6.2-10.1c-1.4-3.9-2.2-8.1-2.2-12.7v-47.9h10.6v47.8
			c0,3.3,0.5,6.3,1.4,9.1c0.9,2.8,2.3,5.1,4.1,7.1c1.8,2,4,3.5,6.5,4.6S670.3,302.2,673.5,302.2z"/>
		<path class="st6" d="M712.9,310.7V255h5.8c1.4,0,2.3,0.7,2.6,2l0.8,6.1c2.4-2.7,5.1-4.8,8.1-6.5c3-1.7,6.4-2.5,10.4-2.5
			c3,0,5.7,0.5,8.1,1.5c2.3,1,4.3,2.4,5.8,4.3c1.6,1.9,2.7,4.1,3.5,6.7s1.2,5.5,1.2,8.6v35.5h-9.8v-35.5c0-4.2-1-7.5-2.9-9.8
			c-1.9-2.3-4.9-3.5-8.8-3.5c-2.9,0-5.6,0.7-8.1,2.1s-4.8,3.3-7,5.7v41H712.9z"/>
		<path class="st6" d="M778.3,237.5c0,1-0.2,1.8-0.6,2.7c-0.4,0.8-0.9,1.6-1.5,2.2c-0.6,0.6-1.4,1.1-2.2,1.5
			c-0.8,0.4-1.7,0.5-2.7,0.5c-1,0-1.8-0.2-2.7-0.5c-0.8-0.4-1.6-0.9-2.2-1.5c-0.6-0.6-1.1-1.4-1.5-2.2c-0.4-0.8-0.5-1.7-0.5-2.7
			c0-1,0.2-1.9,0.5-2.7c0.4-0.9,0.9-1.6,1.5-2.3c0.6-0.6,1.4-1.1,2.2-1.5c0.8-0.4,1.7-0.5,2.7-0.5c1,0,1.9,0.2,2.7,0.5
			c0.8,0.4,1.6,0.9,2.2,1.5c0.6,0.6,1.2,1.4,1.5,2.3C778.1,235.6,778.3,236.5,778.3,237.5z M776.1,255v55.7h-9.8V255H776.1z"/>
		<path class="st6" d="M823.8,310.7c-1.4,0-2.3-0.7-2.6-2l-0.9-6.8c-2.4,2.9-5.1,5.2-8.2,7c-3.1,1.7-6.6,2.6-10.5,2.6
			c-3.2,0-6.1-0.6-8.7-1.8s-4.8-3-6.7-5.4c-1.8-2.4-3.2-5.4-4.2-8.9c-1-3.6-1.5-7.6-1.5-12.3c0-4.1,0.5-7.9,1.7-11.5
			c1.1-3.5,2.7-6.6,4.8-9.2c2.1-2.6,4.6-4.6,7.6-6.1c3-1.5,6.3-2.2,10.1-2.2c3.4,0,6.3,0.6,8.7,1.7c2.4,1.2,4.6,2.8,6.5,4.9v-30.9
			h9.8v81H823.8z M804.8,303.5c3.2,0,6-0.7,8.4-2.2s4.6-3.5,6.6-6.2v-27c-1.8-2.4-3.8-4.1-5.9-5.1c-2.1-1-4.5-1.5-7.1-1.5
			c-5.2,0-9.2,1.9-12,5.6c-2.8,3.7-4.2,9-4.2,15.8c0,3.6,0.3,6.7,0.9,9.3c0.6,2.6,1.5,4.7,2.8,6.4c1.2,1.7,2.7,2.9,4.5,3.7
			C800.5,303.2,802.6,303.5,804.8,303.5z"/>
		<path class="st6" d="M859.8,254.1c4.1,0,7.7,0.7,11,2c3.3,1.4,6.1,3.3,8.4,5.8c2.3,2.5,4.1,5.5,5.3,9c1.2,3.5,1.8,7.5,1.8,11.9
			c0,4.4-0.6,8.4-1.8,11.9c-1.2,3.5-3,6.5-5.3,9c-2.3,2.5-5.1,4.4-8.4,5.7c-3.3,1.3-7,2-11,2s-7.7-0.7-11-2
			c-3.3-1.3-6.1-3.3-8.4-5.7s-4.1-5.5-5.3-9c-1.2-3.5-1.9-7.5-1.9-11.9c0-4.4,0.6-8.3,1.9-11.9c1.2-3.5,3-6.6,5.3-9
			c2.3-2.5,5.1-4.4,8.4-5.8C852.1,254.8,855.8,254.1,859.8,254.1z M859.8,303.8c5.5,0,9.6-1.8,12.3-5.5c2.7-3.7,4.1-8.8,4.1-15.4
			c0-6.6-1.4-11.8-4.1-15.5c-2.7-3.7-6.8-5.6-12.3-5.6c-2.8,0-5.2,0.5-7.3,1.4c-2.1,1-3.8,2.3-5.1,4.1c-1.4,1.8-2.4,4-3.1,6.6
			c-0.7,2.6-1,5.6-1,8.9c0,3.3,0.3,6.3,1,8.9c0.7,2.6,1.7,4.8,3.1,6.6c1.4,1.8,3.1,3.1,5.1,4.1C854.6,303.3,857,303.8,859.8,303.8z"
			/>
	</g>
</g>
</svg>
