<?xml version="1.0" encoding="utf-8"?>
<!-- Generator: Adobe Illustrator 27.1.1, SVG Export Plug-In . SVG Version: 6.00 Build 0)  -->
<svg version="1.1" id="Camada_1" xmlns="http://www.w3.org/2000/svg" xmlns:xlink="http://www.w3.org/1999/xlink" x="0px" y="0px"
	 viewBox="0 0 619.4 199.9" style="enable-background:new 0 0 619.4 199.9;" xml:space="preserve">
<style type="text/css">
	.st0{fill:#1E3D89;}
	.st1{fill:#FBC819;}
</style>
<g>
	<path class="st0" d="M260.3,17.5v12.1h-36.2v22.7h28.5v11.7h-28.5V87h36.2v12.1h-51.5V17.5H260.3z"/>
	<path class="st0" d="M328.8,17.5v12.5h-24.6v69.2H289V29.9h-24.7V17.5H328.8z"/>
	<path class="st0" d="M353.3,99.2H338V17.5h15.3V99.2z"/>
	<path class="st0" d="M441.2,99.2h-11.8c-1.3,0-2.4-0.3-3.2-1c-0.8-0.7-1.5-1.5-1.8-2.5L418.3,79h-33.8l-6.1,16.7
		c-0.3,0.9-0.9,1.7-1.8,2.4c-0.9,0.7-2,1.1-3.2,1.1h-11.8l32.1-81.7h15.5L441.2,99.2z M388.3,68.3h26l-9.9-27.2
		c-0.5-1.2-1-2.6-1.5-4.3c-0.5-1.6-1.1-3.4-1.6-5.3c-0.5,1.9-1,3.7-1.6,5.4c-0.5,1.7-1,3.1-1.5,4.4L388.3,68.3z"/>
	<path class="st0" d="M491.2,32.3c-0.4,0.8-0.9,1.4-1.4,1.8c-0.5,0.3-1.2,0.5-1.9,0.5c-0.8,0-1.6-0.3-2.5-0.9
		c-0.9-0.6-2.1-1.2-3.3-1.9c-1.3-0.7-2.8-1.4-4.5-1.9s-3.7-0.9-6.1-0.9c-2.1,0-3.9,0.3-5.5,0.8c-1.6,0.5-2.9,1.2-4,2.1
		c-1.1,0.9-1.9,2-2.4,3.2c-0.5,1.3-0.8,2.6-0.8,4.2c0,1.9,0.5,3.5,1.6,4.8c1.1,1.3,2.5,2.4,4.3,3.3c1.8,0.9,3.8,1.7,6,2.4
		c2.3,0.7,4.6,1.5,6.9,2.3c2.4,0.8,4.7,1.8,6.9,2.8c2.3,1.1,4.3,2.4,6,4.1c1.8,1.6,3.2,3.6,4.3,6c1.1,2.4,1.6,5.3,1.6,8.6
		c0,3.7-0.6,7.1-1.9,10.4c-1.3,3.2-3.1,6-5.5,8.4c-2.4,2.4-5.4,4.3-8.9,5.7c-3.5,1.4-7.5,2.1-12,2.1c-2.6,0-5.2-0.3-7.7-0.8
		c-2.5-0.5-4.9-1.2-7.3-2.2c-2.3-0.9-4.5-2.1-6.5-3.4c-2-1.3-3.8-2.8-5.4-4.4l4.4-7.3c0.4-0.5,0.9-1,1.5-1.3
		c0.6-0.4,1.2-0.5,1.9-0.5c0.9,0,2,0.4,3.1,1.2c1.1,0.8,2.4,1.6,3.9,2.6c1.5,0.9,3.2,1.8,5.3,2.6c2,0.8,4.4,1.2,7.3,1.2
		c4.3,0,7.7-1,10.1-3.1c2.4-2.1,3.6-5,3.6-8.8c0-2.1-0.5-3.9-1.6-5.3c-1.1-1.4-2.5-2.5-4.3-3.4c-1.8-0.9-3.8-1.7-6-2.3
		c-2.3-0.6-4.6-1.3-6.9-2.1c-2.3-0.8-4.6-1.7-6.9-2.7c-2.3-1.1-4.3-2.4-6-4.1c-1.8-1.7-3.2-3.8-4.3-6.4c-1.1-2.5-1.6-5.7-1.6-9.4
		c0-3,0.6-5.9,1.8-8.7c1.2-2.8,2.9-5.3,5.2-7.5c2.3-2.2,5.1-3.9,8.4-5.3c3.3-1.3,7.1-2,11.4-2c4.8,0,9.3,0.8,13.3,2.3
		c4.1,1.5,7.5,3.6,10.4,6.3L491.2,32.3z"/>
	<path class="st0" d="M226.5,165.7c2.1,0,4-0.4,5.7-1.1s3.1-1.7,4.2-3c1.2-1.3,2-2.8,2.6-4.6s0.9-3.7,0.9-5.9v-31h6.9v31
		c0,2.9-0.5,5.7-1.4,8.2c-0.9,2.5-2.3,4.7-4,6.5s-3.9,3.3-6.4,4.3c-2.5,1-5.3,1.6-8.5,1.6c-3.1,0-6-0.5-8.5-1.6s-4.6-2.5-6.4-4.3
		c-1.8-1.8-3.1-4-4-6.5c-0.9-2.5-1.4-5.2-1.4-8.2v-31h6.9v31c0,2.1,0.3,4.1,0.9,5.9s1.5,3.3,2.6,4.6c1.2,1.3,2.6,2.3,4.2,3
		C222.5,165.3,224.4,165.7,226.5,165.7z"/>
	<path class="st0" d="M252.7,171.2v-36h3.8c0.9,0,1.5,0.4,1.7,1.3l0.5,3.9c1.6-1.7,3.3-3.1,5.2-4.2c1.9-1.1,4.2-1.6,6.7-1.6
		c2,0,3.7,0.3,5.2,1c1.5,0.7,2.8,1.6,3.8,2.8c1,1.2,1.8,2.6,2.3,4.3c0.5,1.7,0.8,3.5,0.8,5.6v23h-6.3v-23c0-2.7-0.6-4.8-1.9-6.4
		c-1.2-1.5-3.1-2.3-5.7-2.3c-1.9,0-3.6,0.5-5.2,1.4c-1.6,0.9-3.1,2.1-4.5,3.7v26.5H252.7z"/>
	<path class="st0" d="M295.8,123.8c0,0.6-0.1,1.2-0.4,1.7c-0.2,0.5-0.6,1-1,1.4c-0.4,0.4-0.9,0.7-1.4,1c-0.5,0.2-1.1,0.4-1.7,0.4
		c-0.6,0-1.2-0.1-1.7-0.4c-0.5-0.2-1-0.6-1.4-1s-0.7-0.9-1-1.4c-0.2-0.5-0.4-1.1-0.4-1.7s0.1-1.2,0.4-1.8c0.2-0.6,0.6-1,1-1.5
		s0.9-0.7,1.4-1c0.5-0.2,1.1-0.4,1.7-0.4c0.6,0,1.2,0.1,1.7,0.4c0.5,0.2,1,0.6,1.4,1c0.4,0.4,0.7,0.9,1,1.5
		C295.6,122.6,295.8,123.2,295.8,123.8z M294.3,135.1v36H288v-36H294.3z"/>
	<path class="st0" d="M327,171.2h-2.8c-0.6,0-1.1-0.1-1.5-0.3c-0.4-0.2-0.6-0.6-0.7-1.2l-0.7-3.3c-0.9,0.9-1.9,1.6-2.8,2.3
		c-0.9,0.7-1.9,1.2-2.8,1.7c-1,0.5-2.1,0.8-3.2,1c-1.1,0.2-2.4,0.4-3.8,0.4c-1.4,0-2.7-0.2-3.9-0.6c-1.2-0.4-2.3-1-3.2-1.8
		c-0.9-0.8-1.6-1.8-2.2-3c-0.5-1.2-0.8-2.6-0.8-4.3c0-1.4,0.4-2.8,1.2-4.1s2-2.5,3.8-3.5c1.7-1,4-1.9,6.9-2.5c2.8-0.7,6.3-1,10.4-1
		v-2.8c0-2.8-0.6-4.9-1.8-6.4c-1.2-1.4-3-2.2-5.3-2.2c-1.5,0-2.8,0.2-3.9,0.6c-1.1,0.4-2,0.8-2.7,1.3c-0.8,0.5-1.4,0.9-2,1.3
		c-0.6,0.4-1.1,0.6-1.7,0.6c-0.4,0-0.8-0.1-1.1-0.3s-0.6-0.5-0.8-0.8l-1.1-2c2-1.9,4.1-3.4,6.4-4.3c2.3-0.9,4.9-1.4,7.7-1.4
		c2,0,3.8,0.3,5.4,1s2.9,1.6,3.9,2.8c1.1,1.2,1.9,2.6,2.4,4.3s0.8,3.5,0.8,5.6V171.2z M318,124c0.9,0,1.5-0.2,2-0.7
		c0.5-0.5,0.7-1.3,0.7-2.3h3.8c0,1.1-0.1,2.1-0.4,3.1c-0.3,0.9-0.7,1.7-1.3,2.4c-0.6,0.7-1.2,1.2-2,1.5c-0.8,0.4-1.6,0.6-2.6,0.6
		c-0.8,0-1.6-0.2-2.3-0.5c-0.7-0.3-1.4-0.7-2-1.1s-1.2-0.8-1.8-1.1c-0.6-0.3-1.1-0.5-1.7-0.5c-1.7,0-2.6,1-2.6,3.1h-4
		c0-1.1,0.2-2.2,0.5-3.1c0.3-0.9,0.7-1.7,1.3-2.4c0.6-0.7,1.2-1.2,2-1.6c0.8-0.4,1.6-0.6,2.6-0.6c0.8,0,1.6,0.2,2.3,0.5
		c0.7,0.3,1.4,0.7,2,1.1c0.6,0.4,1.2,0.8,1.8,1.1C316.9,123.8,317.5,124,318,124z M310.6,167.3c1.1,0,2.1-0.1,3.1-0.3s1.8-0.5,2.6-1
		c0.8-0.4,1.6-0.9,2.3-1.5c0.7-0.6,1.5-1.3,2.2-2V155c-2.9,0-5.4,0.2-7.4,0.6c-2,0.4-3.7,0.9-5,1.4c-1.3,0.6-2.2,1.3-2.8,2.1
		c-0.6,0.8-0.9,1.7-0.9,2.7c0,1,0.2,1.8,0.5,2.5c0.3,0.7,0.7,1.3,1.2,1.7s1.1,0.8,1.9,1C309,167.2,309.7,167.3,310.6,167.3z"/>
	<path class="st0" d="M346.2,134.5c2.6,0,5,0.4,7.1,1.3s3.9,2.1,5.4,3.7s2.6,3.6,3.4,5.9c0.8,2.3,1.2,4.8,1.2,7.7
		c0,2.8-0.4,5.4-1.2,7.7s-1.9,4.2-3.4,5.8s-3.3,2.9-5.4,3.7c-2.1,0.9-4.5,1.3-7.1,1.3c-2.6,0-5-0.4-7.1-1.3
		c-2.1-0.9-3.9-2.1-5.4-3.7s-2.6-3.6-3.5-5.8s-1.2-4.8-1.2-7.7c0-2.8,0.4-5.4,1.2-7.7c0.8-2.3,2-4.2,3.5-5.9s3.3-2.9,5.4-3.7
		S343.6,134.5,346.2,134.5z M346.2,166.7c3.6,0,6.2-1.2,8-3.6c1.8-2.4,2.6-5.7,2.6-10c0-4.3-0.9-7.6-2.6-10c-1.8-2.4-4.4-3.6-8-3.6
		c-1.8,0-3.4,0.3-4.7,0.9c-1.3,0.6-2.4,1.5-3.3,2.7s-1.6,2.6-2,4.3c-0.4,1.7-0.7,3.6-0.7,5.7c0,2.1,0.2,4,0.7,5.7
		c0.4,1.7,1.1,3.1,2,4.3s2,2,3.3,2.7C342.8,166.4,344.4,166.7,346.2,166.7z"/>
	<path class="st0" d="M407.4,120.2v5.6h-24.5v16.9h19.8v5.4h-19.8v17.4h24.5v5.6H376v-51H407.4z"/>
	<path class="st0" d="M416.8,135.1v23c0,2.7,0.6,4.8,1.9,6.3c1.3,1.5,3.2,2.2,5.7,2.2c1.8,0,3.6-0.4,5.2-1.3
		c1.6-0.9,3.1-2.1,4.5-3.7v-26.6h6.3v36h-3.8c-0.9,0-1.5-0.4-1.7-1.3l-0.5-3.9c-1.6,1.7-3.3,3.1-5.3,4.2c-1.9,1.1-4.2,1.6-6.7,1.6
		c-2,0-3.7-0.3-5.2-1s-2.8-1.6-3.8-2.8c-1-1.2-1.8-2.6-2.3-4.3c-0.5-1.7-0.8-3.5-0.8-5.6v-23H416.8z"/>
	<path class="st0" d="M445.9,171.2v-36h3.6c0.7,0,1.2,0.1,1.4,0.4c0.3,0.3,0.4,0.7,0.5,1.4l0.4,5.6c1.2-2.5,2.8-4.5,4.6-5.9
		c1.8-1.4,3.9-2.1,6.4-2.1c1,0,1.9,0.1,2.7,0.3s1.6,0.5,2.2,0.9l-0.8,4.7c-0.2,0.6-0.5,0.9-1.1,0.9c-0.3,0-0.8-0.1-1.5-0.3
		s-1.6-0.3-2.9-0.3c-2.2,0-4.1,0.6-5.5,1.9c-1.5,1.3-2.7,3.1-3.7,5.6v23H445.9z"/>
	<path class="st0" d="M484.2,134.5c2.6,0,5,0.4,7.1,1.3c2.1,0.9,3.9,2.1,5.4,3.7s2.6,3.6,3.4,5.9c0.8,2.3,1.2,4.8,1.2,7.7
		c0,2.8-0.4,5.4-1.2,7.7c-0.8,2.3-1.9,4.2-3.4,5.8s-3.3,2.9-5.4,3.7c-2.1,0.9-4.5,1.3-7.1,1.3c-2.6,0-5-0.4-7.1-1.3
		c-2.1-0.9-3.9-2.1-5.4-3.7c-1.5-1.6-2.6-3.6-3.5-5.8c-0.8-2.3-1.2-4.8-1.2-7.7c0-2.8,0.4-5.4,1.2-7.7c0.8-2.3,2-4.2,3.5-5.9
		c1.5-1.6,3.3-2.9,5.4-3.7S481.6,134.5,484.2,134.5z M484.2,166.7c3.6,0,6.2-1.2,8-3.6c1.8-2.4,2.6-5.7,2.6-10c0-4.3-0.9-7.6-2.6-10
		c-1.8-2.4-4.4-3.6-8-3.6c-1.8,0-3.4,0.3-4.7,0.9c-1.3,0.6-2.4,1.5-3.3,2.7s-1.6,2.6-2,4.3c-0.4,1.7-0.7,3.6-0.7,5.7
		c0,2.1,0.2,4,0.7,5.7c0.4,1.7,1.1,3.1,2,4.3s2,2,3.3,2.7C480.8,166.4,482.4,166.7,484.2,166.7z"/>
	<path class="st0" d="M504.2,183.4v-48.3h3.8c0.9,0,1.5,0.4,1.7,1.3l0.5,4.3c1.5-1.9,3.3-3.4,5.3-4.5c2-1.1,4.3-1.7,6.8-1.7
		c2.1,0,3.9,0.4,5.6,1.2c1.7,0.8,3.1,2,4.3,3.5c1.2,1.6,2.1,3.5,2.7,5.8c0.6,2.3,1,4.9,1,7.9c0,2.7-0.4,5.1-1.1,7.4
		c-0.7,2.3-1.7,4.3-3.1,5.9c-1.3,1.7-3,3-4.9,3.9s-4.1,1.4-6.5,1.4c-2.2,0-4.1-0.4-5.7-1.1c-1.6-0.7-3-1.8-4.2-3.1v15.9H504.2z
		 M520.3,139.6c-2.1,0-3.9,0.5-5.4,1.4s-3,2.3-4.3,4v17.4c1.2,1.6,2.4,2.7,3.8,3.3s2.9,1,4.6,1c3.3,0,5.9-1.2,7.7-3.6
		c1.8-2.4,2.7-5.8,2.7-10.2c0-2.3-0.2-4.4-0.6-6s-1-3.1-1.8-4.1c-0.8-1.1-1.7-1.9-2.9-2.4S521.7,139.6,520.3,139.6z"/>
	<path class="st0" d="M552.8,134.5c2.2,0,4.2,0.4,6,1.1s3.4,1.8,4.7,3.1c1.3,1.4,2.4,3,3.1,5.1c0.7,2,1.1,4.3,1.1,6.9
		c0,1-0.1,1.7-0.3,2c-0.2,0.3-0.6,0.5-1.2,0.5h-24c0,2.3,0.4,4.3,0.9,5.9s1.4,3.1,2.3,4.2c1,1.1,2.2,2,3.6,2.5
		c1.4,0.6,2.9,0.8,4.6,0.8c1.6,0,3-0.2,4.1-0.6s2.1-0.8,3-1.2c0.8-0.4,1.5-0.8,2.1-1.2c0.6-0.4,1-0.6,1.4-0.6c0.5,0,0.9,0.2,1.2,0.6
		l1.8,2.3c-0.8,0.9-1.7,1.8-2.8,2.5c-1.1,0.7-2.3,1.3-3.5,1.7c-1.2,0.5-2.5,0.8-3.9,1c-1.3,0.2-2.6,0.3-4,0.3
		c-2.5,0-4.8-0.4-6.9-1.3s-3.9-2.1-5.4-3.7c-1.5-1.6-2.7-3.6-3.6-6c-0.9-2.4-1.3-5.1-1.3-8.3c0-2.5,0.4-4.9,1.2-7
		c0.8-2.2,1.9-4.1,3.3-5.7c1.4-1.6,3.2-2.9,5.3-3.8S550.2,134.5,552.8,134.5z M552.9,139.2c-3.1,0-5.5,0.9-7.2,2.7
		c-1.8,1.8-2.8,4.2-3.3,7.3H562c0-1.5-0.2-2.8-0.6-4s-1-2.3-1.8-3.2c-0.8-0.9-1.7-1.6-2.9-2.1C555.7,139.4,554.4,139.2,552.9,139.2z
		"/>
	<path class="st0" d="M579.3,123.8c0,0.6-0.1,1.2-0.4,1.7c-0.2,0.5-0.6,1-1,1.4s-0.9,0.7-1.4,1c-0.5,0.2-1.1,0.4-1.7,0.4
		c-0.6,0-1.2-0.1-1.7-0.4c-0.5-0.2-1-0.6-1.4-1c-0.4-0.4-0.7-0.9-1-1.4c-0.2-0.5-0.4-1.1-0.4-1.7s0.1-1.2,0.4-1.8
		c0.2-0.6,0.6-1,1-1.5c0.4-0.4,0.9-0.7,1.4-1c0.5-0.2,1.1-0.4,1.7-0.4c0.6,0,1.2,0.1,1.7,0.4s1,0.6,1.4,1s0.7,0.9,1,1.5
		C579.2,122.6,579.3,123.2,579.3,123.8z M577.9,135.1v36h-6.3v-36H577.9z"/>
	<path class="st0" d="M610.5,171.2h-2.8c-0.6,0-1.1-0.1-1.5-0.3c-0.4-0.2-0.6-0.6-0.7-1.2l-0.7-3.3c-0.9,0.9-1.9,1.6-2.8,2.3
		c-0.9,0.7-1.9,1.2-2.8,1.7c-1,0.5-2.1,0.8-3.2,1c-1.1,0.2-2.4,0.4-3.8,0.4c-1.4,0-2.7-0.2-3.9-0.6c-1.2-0.4-2.3-1-3.2-1.8
		c-0.9-0.8-1.6-1.8-2.2-3c-0.5-1.2-0.8-2.6-0.8-4.3c0-1.4,0.4-2.8,1.2-4.1s2-2.5,3.8-3.5c1.7-1,4-1.9,6.8-2.5c2.8-0.7,6.3-1,10.4-1
		v-2.8c0-2.8-0.6-4.9-1.8-6.4s-3-2.2-5.3-2.2c-1.5,0-2.8,0.2-3.9,0.6s-2,0.8-2.7,1.3c-0.8,0.5-1.4,0.9-2,1.3
		c-0.6,0.4-1.1,0.6-1.7,0.6c-0.4,0-0.8-0.1-1.1-0.3c-0.3-0.2-0.6-0.5-0.8-0.8l-1.1-2c2-1.9,4.1-3.4,6.4-4.3c2.3-0.9,4.9-1.4,7.7-1.4
		c2,0,3.8,0.3,5.4,1c1.6,0.7,2.9,1.6,4,2.8c1.1,1.2,1.9,2.6,2.4,4.3s0.8,3.5,0.8,5.6V171.2z M594.1,167.3c1.1,0,2.1-0.1,3.1-0.3
		s1.8-0.5,2.6-1s1.6-0.9,2.3-1.5c0.7-0.6,1.5-1.3,2.2-2V155c-2.9,0-5.4,0.2-7.4,0.6s-3.7,0.9-5,1.4c-1.3,0.6-2.2,1.3-2.8,2.1
		c-0.6,0.8-0.9,1.7-0.9,2.7c0,1,0.2,1.8,0.5,2.5c0.3,0.7,0.7,1.3,1.2,1.7c0.5,0.4,1.1,0.8,1.9,1
		C592.5,167.2,593.3,167.3,594.1,167.3z"/>
</g>
<g id="XMLID_9945_">
	<g>
		<polygon id="XMLID_00000019672238140336513320000002133545821833565354_" class="st1" points="147.6,31.1 150.9,41.3 161.7,41.3 
			153,47.6 156.3,57.9 147.6,51.6 138.9,57.9 142.2,47.6 133.5,41.3 144.3,41.3 		"/>
		<polygon class="st1" points="172.9,76.1 176.2,86.4 187,86.4 178.3,92.7 181.6,102.9 172.9,96.6 164.2,102.9 167.5,92.7 
			158.8,86.4 169.6,86.4 		"/>
		<polygon class="st1" points="163,128.2 166.3,138.4 177.1,138.4 168.4,144.7 171.7,155 163,148.6 154.3,155 157.6,144.7 
			148.9,138.4 159.7,138.4 		"/>
		<polygon class="st1" points="123.3,160.6 126.6,170.8 137.4,170.8 128.7,177.1 132,187.4 123.3,181.1 114.6,187.4 117.9,177.1 
			109.2,170.8 119.9,170.8 		"/>
		<polygon class="st1" points="70.1,159.8 73.4,170 84.2,170 75.5,176.4 78.8,186.6 70.1,180.3 61.4,186.6 64.7,176.4 56,170 
			66.8,170 		"/>
		<polygon class="st1" points="31.4,126.3 34.7,136.5 45.4,136.5 36.7,142.8 40.1,153.1 31.4,146.7 22.6,153.1 26,142.8 17.3,136.5 
			28,136.5 		"/>
		<polygon class="st1" points="22.9,73.9 26.3,84.2 37,84.2 28.3,90.5 31.6,100.7 22.9,94.4 14.2,100.7 17.6,90.5 8.8,84.2 
			19.6,84.2 		"/>
		<polygon class="st1" points="49.5,29.7 52.8,40 63.5,40 54.8,46.3 58.2,56.5 49.5,50.2 40.7,56.5 44.1,46.3 35.4,40 46.1,40 		"/>
		<polygon class="st1" points="98.9,12.5 102.2,22.8 113,22.8 104.3,29.1 107.6,39.3 98.9,33 90.2,39.3 93.5,29.1 84.8,22.8 
			95.6,22.8 		"/>
		<polygon id="XMLID_00000072253029802558647660000009690301203033464993_" class="st1" points="147.6,31.1 150.9,41.3 161.7,41.3 
			153,47.6 156.3,57.9 147.6,51.6 138.9,57.9 142.2,47.6 133.5,41.3 144.3,41.3 		"/>
	</g>
</g>
</svg>
