<?xml version="1.0" encoding="utf-8"?>
<!-- Generator: Adobe Illustrator 27.1.1, SVG Export Plug-In . SVG Version: 6.00 Build 0)  -->
<svg version="1.1" id="Flag" xmlns="http://www.w3.org/2000/svg" xmlns:xlink="http://www.w3.org/1999/xlink" x="0px" y="0px"
	 viewBox="0 0 1050 1050" style="enable-background:new 0 0 1050 1050;" xml:space="preserve">
<style type="text/css">
	.st0{fill:#FFFFFF;}
	.st1{fill:#A22330;}
	.st2{fill:#1C234F;}
</style>
<rect y="3.5" class="st0" width="1050" height="1030.7"/>
<rect y="0" class="st1" width="1050" height="80.2"/>
<rect y="163.9" class="st1" width="1050" height="80.2"/>
<rect y="324.4" class="st1" width="1050" height="80.2"/>
<rect y="484.9" class="st1" width="1050" height="80.2"/>
<rect y="645.4" class="st1" width="1050" height="80.2"/>
<rect y="805.8" class="st1" width="1050" height="80.2"/>
<rect y="969.8" class="st1" width="1050" height="80.2"/>
<g>
	<rect y="0" class="st2" width="677.4" height="560.6"/>
	<g>
		<g>
			<g>
				<polygon class="st0" points="42.5,24.6 49.5,46.3 72.4,46.3 53.9,59.7 60.9,81.4 42.5,68 24,81.4 31.1,59.7 12.6,46.3 
					35.4,46.3 				"/>
			</g>
			<g>
				<polygon class="st0" points="161,24.6 168,46.3 190.8,46.3 172.4,59.7 179.4,81.4 161,68 142.5,81.4 149.6,59.7 131.1,46.3 
					153.9,46.3 				"/>
			</g>
			<g>
				<polygon class="st0" points="279.5,24.6 286.5,46.3 309.3,46.3 290.9,59.7 297.9,81.4 279.5,68 261,81.4 268,59.7 249.6,46.3 
					272.4,46.3 				"/>
			</g>
			<g>
				<polygon class="st0" points="397.9,24.6 405,46.3 427.8,46.3 409.4,59.7 416.4,81.4 397.9,68 379.5,81.4 386.5,59.7 368.1,46.3 
					390.9,46.3 				"/>
			</g>
			<g>
				<polygon class="st0" points="516.4,24.6 523.5,46.3 546.3,46.3 527.8,59.7 534.9,81.4 516.4,68 498,81.4 505,59.7 486.6,46.3 
					509.4,46.3 				"/>
			</g>
			<g>
				<polygon class="st0" points="634.9,24.6 642,46.3 664.8,46.3 646.3,59.7 653.4,81.4 634.9,68 616.5,81.4 623.5,59.7 605,46.3 
					627.9,46.3 				"/>
			</g>
		</g>
		<g>
			<g>
				<polygon class="st0" points="96.9,81.4 103.9,103.1 126.7,103.1 108.3,116.5 115.3,138.2 96.9,124.8 78.4,138.2 85.5,116.5 
					67,103.1 89.8,103.1 				"/>
			</g>
			<g>
				<polygon class="st0" points="215.4,81.4 222.4,103.1 245.2,103.1 226.8,116.5 233.8,138.2 215.4,124.8 196.9,138.2 203.9,116.5 
					185.5,103.1 208.3,103.1 				"/>
			</g>
			<g>
				<polygon class="st0" points="333.8,81.4 340.9,103.1 363.7,103.1 345.3,116.5 352.3,138.2 333.8,124.8 315.4,138.2 322.4,116.5 
					304,103.1 326.8,103.1 				"/>
			</g>
			<g>
				<polygon class="st0" points="452.3,81.4 459.4,103.1 482.2,103.1 463.7,116.5 470.8,138.2 452.3,124.8 433.9,138.2 440.9,116.5 
					422.5,103.1 445.3,103.1 				"/>
			</g>
			<g>
				<polygon class="st0" points="570.8,81.4 577.9,103.1 600.7,103.1 582.2,116.5 589.3,138.2 570.8,124.8 552.4,138.2 559.4,116.5 
					540.9,103.1 563.8,103.1 				"/>
			</g>
		</g>
		<g>
			<g>
				<polygon class="st0" points="42.5,138.2 49.5,159.9 72.4,159.9 53.9,173.3 60.9,195 42.5,181.6 24,195 31.1,173.3 12.6,159.9 
					35.4,159.9 				"/>
			</g>
			<g>
				<polygon class="st0" points="161,138.2 168,159.9 190.8,159.9 172.4,173.3 179.4,195 161,181.6 142.5,195 149.6,173.3 
					131.1,159.9 153.9,159.9 				"/>
			</g>
			<g>
				<polygon class="st0" points="279.5,138.2 286.5,159.9 309.3,159.9 290.9,173.3 297.9,195 279.5,181.6 261,195 268,173.3 
					249.6,159.9 272.4,159.9 				"/>
			</g>
			<g>
				<polygon class="st0" points="397.9,138.2 405,159.9 427.8,159.9 409.4,173.3 416.4,195 397.9,181.6 379.5,195 386.5,173.3 
					368.1,159.9 390.9,159.9 				"/>
			</g>
			<g>
				<polygon class="st0" points="516.4,138.2 523.5,159.9 546.3,159.9 527.8,173.3 534.9,195 516.4,181.6 498,195 505,173.3 
					486.6,159.9 509.4,159.9 				"/>
			</g>
			<g>
				<polygon class="st0" points="634.9,138.2 642,159.9 664.8,159.9 646.3,173.3 653.4,195 634.9,181.6 616.5,195 623.5,173.3 
					605,159.9 627.9,159.9 				"/>
			</g>
		</g>
		<g>
			<g>
				<polygon class="st0" points="96.9,195 103.9,216.8 126.7,216.8 108.3,230.2 115.3,251.9 96.9,238.5 78.4,251.9 85.5,230.2 
					67,216.8 89.8,216.8 				"/>
			</g>
			<g>
				<polygon class="st0" points="215.4,195 222.4,216.8 245.2,216.8 226.8,230.2 233.8,251.9 215.4,238.5 196.9,251.9 203.9,230.2 
					185.5,216.8 208.3,216.8 				"/>
			</g>
			<g>
				<polygon class="st0" points="333.8,195 340.9,216.8 363.7,216.8 345.3,230.2 352.3,251.9 333.8,238.5 315.4,251.9 322.4,230.2 
					304,216.8 326.8,216.8 				"/>
			</g>
			<g>
				<polygon class="st0" points="452.3,195 459.4,216.8 482.2,216.8 463.7,230.2 470.8,251.9 452.3,238.5 433.9,251.9 440.9,230.2 
					422.5,216.8 445.3,216.8 				"/>
			</g>
			<g>
				<polygon class="st0" points="570.8,195 577.9,216.8 600.7,216.8 582.2,230.2 589.3,251.9 570.8,238.5 552.4,251.9 559.4,230.2 
					540.9,216.8 563.8,216.8 				"/>
			</g>
		</g>
		<g>
			<g>
				<polygon class="st0" points="42.5,251.9 49.5,273.6 72.4,273.6 53.9,287 60.9,308.7 42.5,295.3 24,308.7 31.1,287 12.6,273.6 
					35.4,273.6 				"/>
			</g>
			<g>
				<polygon class="st0" points="161,251.9 168,273.6 190.8,273.6 172.4,287 179.4,308.7 161,295.3 142.5,308.7 149.6,287 
					131.1,273.6 153.9,273.6 				"/>
			</g>
			<g>
				<polygon class="st0" points="279.5,251.9 286.5,273.6 309.3,273.6 290.9,287 297.9,308.7 279.5,295.3 261,308.7 268,287 
					249.6,273.6 272.4,273.6 				"/>
			</g>
			<g>
				<polygon class="st0" points="397.9,251.9 405,273.6 427.8,273.6 409.4,287 416.4,308.7 397.9,295.3 379.5,308.7 386.5,287 
					368.1,273.6 390.9,273.6 				"/>
			</g>
			<g>
				<polygon class="st0" points="516.4,251.9 523.5,273.6 546.3,273.6 527.8,287 534.9,308.7 516.4,295.3 498,308.7 505,287 
					486.6,273.6 509.4,273.6 				"/>
			</g>
			<g>
				<polygon class="st0" points="634.9,251.9 642,273.6 664.8,273.6 646.3,287 653.4,308.7 634.9,295.3 616.5,308.7 623.5,287 
					605,273.6 627.9,273.6 				"/>
			</g>
		</g>
		<g>
			<g>
				<polygon class="st0" points="96.9,308.7 103.9,330.4 126.7,330.4 108.3,343.8 115.3,365.5 96.9,352.1 78.4,365.5 85.5,343.8 
					67,330.4 89.8,330.4 				"/>
			</g>
			<g>
				<polygon class="st0" points="215.4,308.7 222.4,330.4 245.2,330.4 226.8,343.8 233.8,365.5 215.4,352.1 196.9,365.5 
					203.9,343.8 185.5,330.4 208.3,330.4 				"/>
			</g>
			<g>
				<polygon class="st0" points="333.8,308.7 340.9,330.4 363.7,330.4 345.3,343.8 352.3,365.5 333.8,352.1 315.4,365.5 
					322.4,343.8 304,330.4 326.8,330.4 				"/>
			</g>
			<g>
				<polygon class="st0" points="452.3,308.7 459.4,330.4 482.2,330.4 463.7,343.8 470.8,365.5 452.3,352.1 433.9,365.5 
					440.9,343.8 422.5,330.4 445.3,330.4 				"/>
			</g>
			<g>
				<polygon class="st0" points="570.8,308.7 577.9,330.4 600.7,330.4 582.2,343.8 589.3,365.5 570.8,352.1 552.4,365.5 
					559.4,343.8 540.9,330.4 563.8,330.4 				"/>
			</g>
		</g>
		<g>
			<g>
				<polygon class="st0" points="42.5,365.5 49.5,387.2 72.4,387.2 53.9,400.7 60.9,422.4 42.5,408.9 24,422.4 31.1,400.7 
					12.6,387.2 35.4,387.2 				"/>
			</g>
			<g>
				<polygon class="st0" points="161,365.5 168,387.2 190.8,387.2 172.4,400.7 179.4,422.4 161,408.9 142.5,422.4 149.6,400.7 
					131.1,387.2 153.9,387.2 				"/>
			</g>
			<g>
				<polygon class="st0" points="279.5,365.5 286.5,387.2 309.3,387.2 290.9,400.7 297.9,422.4 279.5,408.9 261,422.4 268,400.7 
					249.6,387.2 272.4,387.2 				"/>
			</g>
			<g>
				<polygon class="st0" points="397.9,365.5 405,387.2 427.8,387.2 409.4,400.7 416.4,422.4 397.9,408.9 379.5,422.4 386.5,400.7 
					368.1,387.2 390.9,387.2 				"/>
			</g>
			<g>
				<polygon class="st0" points="516.4,365.5 523.5,387.2 546.3,387.2 527.8,400.7 534.9,422.4 516.4,408.9 498,422.4 505,400.7 
					486.6,387.2 509.4,387.2 				"/>
			</g>
			<g>
				<polygon class="st0" points="634.9,365.5 642,387.2 664.8,387.2 646.3,400.7 653.4,422.4 634.9,408.9 616.5,422.4 623.5,400.7 
					605,387.2 627.9,387.2 				"/>
			</g>
		</g>
		<g>
			<g>
				<polygon class="st0" points="96.9,422.4 103.9,444.1 126.7,444.1 108.3,457.5 115.3,479.2 96.9,465.8 78.4,479.2 85.5,457.5 
					67,444.1 89.8,444.1 				"/>
			</g>
			<g>
				<polygon class="st0" points="215.4,422.4 222.4,444.1 245.2,444.1 226.8,457.5 233.8,479.2 215.4,465.8 196.9,479.2 
					203.9,457.5 185.5,444.1 208.3,444.1 				"/>
			</g>
			<g>
				<polygon class="st0" points="333.8,422.4 340.9,444.1 363.7,444.1 345.3,457.5 352.3,479.2 333.8,465.8 315.4,479.2 
					322.4,457.5 304,444.1 326.8,444.1 				"/>
			</g>
			<g>
				<polygon class="st0" points="452.3,422.4 459.4,444.1 482.2,444.1 463.7,457.5 470.8,479.2 452.3,465.8 433.9,479.2 
					440.9,457.5 422.5,444.1 445.3,444.1 				"/>
			</g>
			<g>
				<polygon class="st0" points="570.8,422.4 577.9,444.1 600.7,444.1 582.2,457.5 589.3,479.2 570.8,465.8 552.4,479.2 
					559.4,457.5 540.9,444.1 563.8,444.1 				"/>
			</g>
		</g>
		<g>
			<g>
				<polygon class="st0" points="42.5,479.2 49.5,500.9 72.4,500.9 53.9,514.3 60.9,536 42.5,522.6 24,536 31.1,514.3 12.6,500.9 
					35.4,500.9 				"/>
			</g>
			<g>
				<polygon class="st0" points="161,479.2 168,500.9 190.8,500.9 172.4,514.3 179.4,536 161,522.6 142.5,536 149.6,514.3 
					131.1,500.9 153.9,500.9 				"/>
			</g>
			<g>
				<polygon class="st0" points="279.5,479.2 286.5,500.9 309.3,500.9 290.9,514.3 297.9,536 279.5,522.6 261,536 268,514.3 
					249.6,500.9 272.4,500.9 				"/>
			</g>
			<g>
				<polygon class="st0" points="397.9,479.2 405,500.9 427.8,500.9 409.4,514.3 416.4,536 397.9,522.6 379.5,536 386.5,514.3 
					368.1,500.9 390.9,500.9 				"/>
			</g>
			<g>
				<polygon class="st0" points="516.4,479.2 523.5,500.9 546.3,500.9 527.8,514.3 534.9,536 516.4,522.6 498,536 505,514.3 
					486.6,500.9 509.4,500.9 				"/>
			</g>
			<g>
				<polygon class="st0" points="634.9,479.2 642,500.9 664.8,500.9 646.3,514.3 653.4,536 634.9,522.6 616.5,536 623.5,514.3 
					605,500.9 627.9,500.9 				"/>
			</g>
		</g>
	</g>
</g>
</svg>
